<?xml version="1.0" encoding="UTF-8"?>
<svg xmlns="http://www.w3.org/2000/svg" xmlns:xlink="http://www.w3.org/1999/xlink" width="100px" height="100px" viewBox="0 0 100 100" version="1.1">
<defs>
<radialGradient id="radial0" gradientUnits="userSpaceOnUse" cx="201.7737" cy="461.3592" fx="201.7737" fy="461.3592" r="261.1088" gradientTransform="matrix(0.195312,0,0,0.195312,0,0)">
<stop offset="0" style="stop-color:rgb(100%,84.313725%,46.27451%);stop-opacity:1;"/>
<stop offset="0.2463" style="stop-color:rgb(95.294118%,64.705882%,32.941176%);stop-opacity:1;"/>
<stop offset="0.3793" style="stop-color:rgb(94.509804%,36.078431%,23.529412%);stop-opacity:1;"/>
<stop offset="0.5394" style="stop-color:rgb(85.098039%,28.235294%,40.392157%);stop-opacity:1;"/>
<stop offset="0.6995" style="stop-color:rgb(76.470588%,18.431373%,52.941176%);stop-opacity:1;"/>
<stop offset="0.9122" style="stop-color:rgb(49.019608%,38.823529%,65.490196%);stop-opacity:1;"/>
<stop offset="0.9852" style="stop-color:rgb(36.078431%,42.352941%,70.196078%);stop-opacity:1;"/>
</radialGradient>
<radialGradient id="radial1" gradientUnits="userSpaceOnUse" cx="228.1541" cy="398.6691" fx="228.1541" fy="398.6691" r="134.0828" gradientTransform="matrix(0.195312,0,0,0.195312,0,0)">
<stop offset="0" style="stop-color:rgb(100%,84.313725%,46.27451%);stop-opacity:1;"/>
<stop offset="0.2463" style="stop-color:rgb(95.294118%,64.705882%,32.941176%);stop-opacity:1;"/>
<stop offset="0.3793" style="stop-color:rgb(94.509804%,36.078431%,23.529412%);stop-opacity:1;"/>
<stop offset="0.607" style="stop-color:rgb(85.098039%,28.235294%,40.392157%);stop-opacity:1;"/>
<stop offset="0.8346" style="stop-color:rgb(76.470588%,18.431373%,52.941176%);stop-opacity:1;"/>
<stop offset="0.9577" style="stop-color:rgb(49.019608%,38.823529%,65.490196%);stop-opacity:1;"/>
<stop offset="1" style="stop-color:rgb(36.078431%,42.352941%,70.196078%);stop-opacity:1;"/>
</radialGradient>
<radialGradient id="radial2" gradientUnits="userSpaceOnUse" cx="318.6223" cy="278.8304" fx="318.6223" fy="278.8304" r="31.333" gradientTransform="matrix(0.195312,0,0,0.195312,0,0)">
<stop offset="0" style="stop-color:rgb(37.254902%,42.745098%,70.196078%);stop-opacity:1;"/>
<stop offset="1" style="stop-color:rgb(36.078431%,42.352941%,70.196078%);stop-opacity:1;"/>
</radialGradient>
</defs>
<g id="surface1">
<path style=" stroke:none;fill-rule:nonzero;fill:url(#radial0);" d="M 73.964844 48.378906 C 73.320312 46.71875 72.460938 45.3125 71.054688 43.90625 C 69.648438 42.5 68.242188 41.640625 66.582031 40.996094 C 64.980469 40.371094 63.125 39.941406 60.449219 39.824219 C 57.753906 39.707031 56.894531 39.667969 50.019531 39.667969 C 43.144531 39.667969 42.285156 39.6875 39.589844 39.824219 C 36.894531 39.941406 35.058594 40.371094 33.457031 40.996094 C 31.796875 41.640625 30.390625 42.5 28.984375 43.90625 C 27.578125 45.3125 26.71875 46.71875 26.074219 48.378906 C 25.449219 49.980469 25.019531 51.835938 24.902344 54.511719 C 24.785156 57.207031 24.746094 58.066406 24.746094 64.941406 C 24.746094 71.816406 24.765625 72.675781 24.902344 75.371094 C 25.019531 78.066406 25.449219 79.902344 26.074219 81.503906 C 26.71875 83.164062 27.578125 84.570312 28.984375 85.976562 C 30.390625 87.382812 31.796875 88.242188 33.457031 88.886719 C 35.058594 89.511719 36.914062 89.941406 39.589844 90.058594 C 42.285156 90.175781 43.144531 90.214844 50.019531 90.214844 C 56.894531 90.214844 57.753906 90.195312 60.449219 90.058594 C 63.144531 89.941406 64.980469 89.511719 66.582031 88.886719 C 68.242188 88.242188 69.648438 87.382812 71.054688 85.976562 C 72.460938 84.570312 73.320312 83.164062 73.964844 81.503906 C 74.589844 79.902344 75.019531 78.046875 75.136719 75.371094 C 75.253906 72.675781 75.292969 71.816406 75.292969 64.941406 C 75.292969 58.066406 75.273438 57.207031 75.136719 54.511719 C 75.019531 51.816406 74.589844 49.980469 73.964844 48.378906 Z M 70.585938 75.15625 C 70.46875 77.617188 70.058594 78.964844 69.707031 79.84375 C 69.257812 81.015625 68.691406 81.875 67.8125 82.753906 C 66.933594 83.632812 66.09375 84.179688 64.902344 84.648438 C 64.003906 85 62.675781 85.410156 60.214844 85.527344 C 57.539062 85.644531 56.757812 85.683594 50 85.683594 C 43.242188 85.683594 42.441406 85.664062 39.785156 85.527344 C 37.324219 85.410156 35.976562 85 35.097656 84.648438 C 33.925781 84.199219 33.066406 83.632812 32.1875 82.753906 C 31.308594 81.875 30.761719 81.035156 30.292969 79.84375 C 29.941406 78.945312 29.53125 77.617188 29.414062 75.15625 C 29.296875 72.480469 29.257812 71.679688 29.257812 64.941406 C 29.257812 58.203125 29.277344 57.382812 29.414062 54.726562 C 29.53125 52.265625 29.941406 50.917969 30.292969 50.039062 C 30.742188 48.867188 31.308594 48.007812 32.1875 47.128906 C 33.066406 46.25 33.90625 45.703125 35.097656 45.234375 C 35.996094 44.882812 37.324219 44.472656 39.785156 44.355469 C 42.460938 44.238281 43.261719 44.199219 50 44.199219 C 56.738281 44.199219 57.558594 44.21875 60.214844 44.355469 C 62.675781 44.472656 64.023438 44.882812 64.902344 45.234375 C 66.074219 45.683594 66.933594 46.25 67.8125 47.128906 C 68.691406 48.007812 69.238281 48.847656 69.707031 50.039062 C 70.058594 50.9375 70.46875 52.265625 70.585938 54.726562 C 70.703125 57.402344 70.742188 58.203125 70.742188 64.941406 C 70.742188 71.679688 70.703125 72.5 70.585938 75.15625 Z M 70.585938 75.15625 "/>
<path style=" stroke:none;fill-rule:nonzero;fill:url(#radial1);" d="M 50 51.953125 C 42.832031 51.953125 37.011719 57.773438 37.011719 64.941406 C 37.011719 72.109375 42.832031 77.929688 50 77.929688 C 57.167969 77.929688 62.988281 72.109375 62.988281 64.941406 C 62.988281 57.773438 57.167969 51.953125 50 51.953125 Z M 50 73.378906 C 45.351562 73.378906 41.5625 69.609375 41.5625 64.941406 C 41.5625 60.292969 45.332031 56.503906 50 56.503906 C 54.667969 56.503906 58.4375 60.273438 58.4375 64.941406 C 58.4375 69.589844 54.648438 73.378906 50 73.378906 Z M 50 73.378906 "/>
<path style=" stroke:none;fill-rule:nonzero;fill:url(#radial2);" d="M 66.523438 51.445312 C 66.523438 53.117188 65.167969 54.472656 63.496094 54.472656 C 61.824219 54.472656 60.46875 53.117188 60.46875 51.445312 C 60.46875 49.773438 61.824219 48.417969 63.496094 48.417969 C 65.167969 48.417969 66.523438 49.773438 66.523438 51.445312 Z M 66.523438 51.445312 "/>
</g>
</svg>
