<?xml version="1.0" encoding="UTF-8"?>
<svg xmlns="http://www.w3.org/2000/svg" xmlns:xlink="http://www.w3.org/1999/xlink" width="60px" height="60px" viewBox="0 0 60 60" version="1.1">
<defs>
<radialGradient id="radial0" gradientUnits="userSpaceOnUse" cx="201.7737" cy="461.3592" fx="201.7737" fy="461.3592" r="261.1088" gradientTransform="matrix(0.117188,0,0,0.117188,0,0)">
<stop offset="0" style="stop-color:rgb(100%,84.313725%,46.27451%);stop-opacity:1;"/>
<stop offset="0.2463" style="stop-color:rgb(95.294118%,64.705882%,32.941176%);stop-opacity:1;"/>
<stop offset="0.3793" style="stop-color:rgb(94.509804%,36.078431%,23.529412%);stop-opacity:1;"/>
<stop offset="0.5394" style="stop-color:rgb(85.098039%,28.235294%,40.392157%);stop-opacity:1;"/>
<stop offset="0.6995" style="stop-color:rgb(76.470588%,18.431373%,52.941176%);stop-opacity:1;"/>
<stop offset="0.9122" style="stop-color:rgb(49.019608%,38.823529%,65.490196%);stop-opacity:1;"/>
<stop offset="0.9852" style="stop-color:rgb(36.078431%,42.352941%,70.196078%);stop-opacity:1;"/>
</radialGradient>
<radialGradient id="radial1" gradientUnits="userSpaceOnUse" cx="228.1541" cy="398.6691" fx="228.1541" fy="398.6691" r="134.0828" gradientTransform="matrix(0.117188,0,0,0.117188,0,0)">
<stop offset="0" style="stop-color:rgb(100%,84.313725%,46.27451%);stop-opacity:1;"/>
<stop offset="0.2463" style="stop-color:rgb(95.294118%,64.705882%,32.941176%);stop-opacity:1;"/>
<stop offset="0.3793" style="stop-color:rgb(94.509804%,36.078431%,23.529412%);stop-opacity:1;"/>
<stop offset="0.607" style="stop-color:rgb(85.098039%,28.235294%,40.392157%);stop-opacity:1;"/>
<stop offset="0.8346" style="stop-color:rgb(76.470588%,18.431373%,52.941176%);stop-opacity:1;"/>
<stop offset="0.9577" style="stop-color:rgb(49.019608%,38.823529%,65.490196%);stop-opacity:1;"/>
<stop offset="1" style="stop-color:rgb(36.078431%,42.352941%,70.196078%);stop-opacity:1;"/>
</radialGradient>
<radialGradient id="radial2" gradientUnits="userSpaceOnUse" cx="318.6223" cy="278.8304" fx="318.6223" fy="278.8304" r="31.333" gradientTransform="matrix(0.117188,0,0,0.117188,0,0)">
<stop offset="0" style="stop-color:rgb(37.254902%,42.745098%,70.196078%);stop-opacity:1;"/>
<stop offset="1" style="stop-color:rgb(36.078431%,42.352941%,70.196078%);stop-opacity:1;"/>
</radialGradient>
</defs>
<g id="surface1">
<path style=" stroke:none;fill-rule:nonzero;fill:url(#radial0);" d="M 44.378906 29.027344 C 43.992188 28.03125 43.476562 27.1875 42.632812 26.34375 C 41.789062 25.5 40.945312 24.984375 39.949219 24.597656 C 38.988281 24.222656 37.875 23.964844 36.269531 23.894531 C 34.652344 23.824219 34.136719 23.800781 30.011719 23.800781 C 25.886719 23.800781 25.371094 23.8125 23.753906 23.894531 C 22.136719 23.964844 21.035156 24.222656 20.074219 24.597656 C 19.078125 24.984375 18.234375 25.5 17.390625 26.34375 C 16.546875 27.1875 16.03125 28.03125 15.644531 29.027344 C 15.269531 29.988281 15.011719 31.101562 14.941406 32.707031 C 14.871094 34.324219 14.847656 34.839844 14.847656 38.964844 C 14.847656 43.089844 14.859375 43.605469 14.941406 45.222656 C 15.011719 46.839844 15.269531 47.941406 15.644531 48.902344 C 16.03125 49.898438 16.546875 50.742188 17.390625 51.585938 C 18.234375 52.429688 19.078125 52.945312 20.074219 53.332031 C 21.035156 53.707031 22.148438 53.964844 23.753906 54.035156 C 25.371094 54.105469 25.886719 54.128906 30.011719 54.128906 C 34.136719 54.128906 34.652344 54.117188 36.269531 54.035156 C 37.886719 53.964844 38.988281 53.707031 39.949219 53.332031 C 40.945312 52.945312 41.789062 52.429688 42.632812 51.585938 C 43.476562 50.742188 43.992188 49.898438 44.378906 48.902344 C 44.753906 47.941406 45.011719 46.828125 45.082031 45.222656 C 45.152344 43.605469 45.175781 43.089844 45.175781 38.964844 C 45.175781 34.839844 45.164062 34.324219 45.082031 32.707031 C 45.011719 31.089844 44.753906 29.988281 44.378906 29.027344 Z M 42.351562 45.09375 C 42.28125 46.570312 42.035156 47.378906 41.824219 47.90625 C 41.554688 48.609375 41.214844 49.125 40.6875 49.652344 C 40.160156 50.179688 39.65625 50.507812 38.941406 50.789062 C 38.402344 51 37.605469 51.246094 36.128906 51.316406 C 34.523438 51.386719 34.054688 51.410156 30 51.410156 C 25.945312 51.410156 25.464844 51.398438 23.871094 51.316406 C 22.394531 51.246094 21.585938 51 21.058594 50.789062 C 20.355469 50.519531 19.839844 50.179688 19.3125 49.652344 C 18.785156 49.125 18.457031 48.621094 18.175781 47.90625 C 17.964844 47.367188 17.71875 46.570312 17.648438 45.09375 C 17.578125 43.488281 17.554688 43.007812 17.554688 38.964844 C 17.554688 34.921875 17.566406 34.429688 17.648438 32.835938 C 17.71875 31.359375 17.964844 30.550781 18.175781 30.023438 C 18.445312 29.320312 18.785156 28.804688 19.3125 28.277344 C 19.839844 27.75 20.34375 27.421875 21.058594 27.140625 C 21.597656 26.929688 22.394531 26.683594 23.871094 26.613281 C 25.476562 26.542969 25.957031 26.519531 30 26.519531 C 34.042969 26.519531 34.535156 26.53125 36.128906 26.613281 C 37.605469 26.683594 38.414062 26.929688 38.941406 27.140625 C 39.644531 27.410156 40.160156 27.75 40.6875 28.277344 C 41.214844 28.804688 41.542969 29.308594 41.824219 30.023438 C 42.035156 30.5625 42.28125 31.359375 42.351562 32.835938 C 42.421875 34.441406 42.445312 34.921875 42.445312 38.964844 C 42.445312 43.007812 42.421875 43.5 42.351562 45.09375 Z M 42.351562 45.09375 "/>
<path style=" stroke:none;fill-rule:nonzero;fill:url(#radial1);" d="M 30 31.171875 C 25.699219 31.171875 22.207031 34.664062 22.207031 38.964844 C 22.207031 43.265625 25.699219 46.757812 30 46.757812 C 34.300781 46.757812 37.792969 43.265625 37.792969 38.964844 C 37.792969 34.664062 34.300781 31.171875 30 31.171875 Z M 30 44.027344 C 27.210938 44.027344 24.9375 41.765625 24.9375 38.964844 C 24.9375 36.175781 27.199219 33.902344 30 33.902344 C 32.800781 33.902344 35.0625 36.164062 35.0625 38.964844 C 35.0625 41.753906 32.789062 44.027344 30 44.027344 Z M 30 44.027344 "/>
<path style=" stroke:none;fill-rule:nonzero;fill:url(#radial2);" d="M 39.914062 30.867188 C 39.914062 31.871094 39.101562 32.683594 38.097656 32.683594 C 37.09375 32.683594 36.28125 31.871094 36.28125 30.867188 C 36.28125 29.863281 37.09375 29.050781 38.097656 29.050781 C 39.101562 29.050781 39.914062 29.863281 39.914062 30.867188 Z M 39.914062 30.867188 "/>
</g>
</svg>
