<?xml version="1.0" encoding="UTF-8"?>
<svg xmlns="http://www.w3.org/2000/svg" xmlns:xlink="http://www.w3.org/1999/xlink" width="75px" height="75px" viewBox="0 0 75 75" version="1.1">
<defs>
<radialGradient id="radial0" gradientUnits="userSpaceOnUse" cx="201.7737" cy="461.3592" fx="201.7737" fy="461.3592" r="261.1088" gradientTransform="matrix(0.146484,0,0,0.146484,0,0)">
<stop offset="0" style="stop-color:rgb(100%,84.313725%,46.27451%);stop-opacity:1;"/>
<stop offset="0.2463" style="stop-color:rgb(95.294118%,64.705882%,32.941176%);stop-opacity:1;"/>
<stop offset="0.3793" style="stop-color:rgb(94.509804%,36.078431%,23.529412%);stop-opacity:1;"/>
<stop offset="0.5394" style="stop-color:rgb(85.098039%,28.235294%,40.392157%);stop-opacity:1;"/>
<stop offset="0.6995" style="stop-color:rgb(76.470588%,18.431373%,52.941176%);stop-opacity:1;"/>
<stop offset="0.9122" style="stop-color:rgb(49.019608%,38.823529%,65.490196%);stop-opacity:1;"/>
<stop offset="0.9852" style="stop-color:rgb(36.078431%,42.352941%,70.196078%);stop-opacity:1;"/>
</radialGradient>
<radialGradient id="radial1" gradientUnits="userSpaceOnUse" cx="228.1541" cy="398.6691" fx="228.1541" fy="398.6691" r="134.0828" gradientTransform="matrix(0.146484,0,0,0.146484,0,0)">
<stop offset="0" style="stop-color:rgb(100%,84.313725%,46.27451%);stop-opacity:1;"/>
<stop offset="0.2463" style="stop-color:rgb(95.294118%,64.705882%,32.941176%);stop-opacity:1;"/>
<stop offset="0.3793" style="stop-color:rgb(94.509804%,36.078431%,23.529412%);stop-opacity:1;"/>
<stop offset="0.607" style="stop-color:rgb(85.098039%,28.235294%,40.392157%);stop-opacity:1;"/>
<stop offset="0.8346" style="stop-color:rgb(76.470588%,18.431373%,52.941176%);stop-opacity:1;"/>
<stop offset="0.9577" style="stop-color:rgb(49.019608%,38.823529%,65.490196%);stop-opacity:1;"/>
<stop offset="1" style="stop-color:rgb(36.078431%,42.352941%,70.196078%);stop-opacity:1;"/>
</radialGradient>
<radialGradient id="radial2" gradientUnits="userSpaceOnUse" cx="318.6223" cy="278.8304" fx="318.6223" fy="278.8304" r="31.333" gradientTransform="matrix(0.146484,0,0,0.146484,0,0)">
<stop offset="0" style="stop-color:rgb(37.254902%,42.745098%,70.196078%);stop-opacity:1;"/>
<stop offset="1" style="stop-color:rgb(36.078431%,42.352941%,70.196078%);stop-opacity:1;"/>
</radialGradient>
</defs>
<g id="surface1">
<path style=" stroke:none;fill-rule:nonzero;fill:url(#radial0);" d="M 55.472656 36.285156 C 54.988281 35.039062 54.347656 33.984375 53.292969 32.929688 C 52.238281 31.875 51.183594 31.230469 49.9375 30.746094 C 48.734375 30.277344 47.34375 29.957031 45.335938 29.867188 C 43.316406 29.78125 42.671875 29.75 37.515625 29.75 C 32.359375 29.75 31.714844 29.765625 29.691406 29.867188 C 27.671875 29.957031 26.292969 30.277344 25.09375 30.746094 C 23.847656 31.230469 22.792969 31.875 21.738281 32.929688 C 20.683594 33.984375 20.039062 35.039062 19.554688 36.285156 C 19.085938 37.484375 18.765625 38.878906 18.675781 40.882812 C 18.589844 42.90625 18.558594 43.550781 18.558594 48.707031 C 18.558594 53.863281 18.574219 54.507812 18.675781 56.527344 C 18.765625 58.550781 19.085938 59.925781 19.554688 61.128906 C 20.039062 62.371094 20.683594 63.425781 21.738281 64.480469 C 22.792969 65.535156 23.847656 66.183594 25.09375 66.664062 C 26.292969 67.132812 27.683594 67.457031 29.691406 67.542969 C 31.714844 67.632812 32.359375 67.660156 37.515625 67.660156 C 42.671875 67.660156 43.316406 67.644531 45.335938 67.542969 C 47.359375 67.457031 48.734375 67.132812 49.9375 66.664062 C 51.183594 66.183594 52.238281 65.535156 53.292969 64.480469 C 54.347656 63.425781 54.988281 62.371094 55.472656 61.128906 C 55.941406 59.925781 56.265625 58.535156 56.351562 56.527344 C 56.441406 54.507812 56.46875 53.863281 56.46875 48.707031 C 56.46875 43.550781 56.457031 42.90625 56.351562 40.882812 C 56.265625 38.863281 55.941406 37.484375 55.472656 36.285156 Z M 52.941406 56.367188 C 52.851562 58.214844 52.542969 59.222656 52.28125 59.882812 C 51.941406 60.761719 51.519531 61.40625 50.859375 62.066406 C 50.199219 62.722656 49.570312 63.136719 48.675781 63.488281 C 48.003906 63.75 47.007812 64.058594 45.160156 64.144531 C 43.152344 64.234375 42.566406 64.261719 37.5 64.261719 C 32.433594 64.261719 31.832031 64.246094 29.839844 64.144531 C 27.992188 64.058594 26.980469 63.75 26.324219 63.488281 C 25.445312 63.148438 24.800781 62.722656 24.140625 62.066406 C 23.480469 61.40625 23.070312 60.777344 22.71875 59.882812 C 22.457031 59.207031 22.148438 58.214844 22.058594 56.367188 C 21.972656 54.359375 21.941406 53.761719 21.941406 48.707031 C 21.941406 43.652344 21.957031 43.035156 22.058594 41.042969 C 22.148438 39.199219 22.457031 38.1875 22.71875 37.527344 C 23.058594 36.652344 23.480469 36.003906 24.140625 35.347656 C 24.800781 34.6875 25.429688 34.277344 26.324219 33.925781 C 26.996094 33.660156 27.992188 33.355469 29.839844 33.265625 C 31.847656 33.179688 32.445312 33.148438 37.5 33.148438 C 42.554688 33.148438 43.167969 33.164062 45.160156 33.265625 C 47.007812 33.355469 48.019531 33.660156 48.675781 33.925781 C 49.554688 34.261719 50.199219 34.6875 50.859375 35.347656 C 51.519531 36.003906 51.929688 36.636719 52.28125 37.527344 C 52.542969 38.203125 52.851562 39.199219 52.941406 41.042969 C 53.027344 43.050781 53.058594 43.652344 53.058594 48.707031 C 53.058594 53.761719 53.027344 54.375 52.941406 56.367188 Z M 52.941406 56.367188 "/>
<path style=" stroke:none;fill-rule:nonzero;fill:url(#radial1);" d="M 37.5 38.964844 C 32.125 38.964844 27.757812 43.332031 27.757812 48.707031 C 27.757812 54.082031 32.125 58.449219 37.5 58.449219 C 42.875 58.449219 47.242188 54.082031 47.242188 48.707031 C 47.242188 43.332031 42.875 38.964844 37.5 38.964844 Z M 37.5 55.035156 C 34.011719 55.035156 31.171875 52.207031 31.171875 48.707031 C 31.171875 45.21875 34 42.378906 37.5 42.378906 C 41 42.378906 43.828125 45.207031 43.828125 48.707031 C 43.828125 52.191406 40.988281 55.035156 37.5 55.035156 Z M 37.5 55.035156 "/>
<path style=" stroke:none;fill-rule:nonzero;fill:url(#radial2);" d="M 49.894531 38.582031 C 49.894531 39.839844 48.875 40.855469 47.621094 40.855469 C 46.367188 40.855469 45.351562 39.839844 45.351562 38.582031 C 45.351562 37.332031 46.367188 36.3125 47.621094 36.3125 C 48.875 36.3125 49.894531 37.332031 49.894531 38.582031 Z M 49.894531 38.582031 "/>
</g>
</svg>
