<?xml version="1.0" encoding="UTF-8"?>
<svg xmlns="http://www.w3.org/2000/svg" xmlns:xlink="http://www.w3.org/1999/xlink" width="85px" height="85px" viewBox="0 0 85 85" version="1.1">
<defs>
<radialGradient id="radial0" gradientUnits="userSpaceOnUse" cx="201.7737" cy="461.3592" fx="201.7737" fy="461.3592" r="261.1088" gradientTransform="matrix(0.166015,0,0,0.166015,0,0)">
<stop offset="0" style="stop-color:rgb(100%,84.313725%,46.27451%);stop-opacity:1;"/>
<stop offset="0.2463" style="stop-color:rgb(95.294118%,64.705882%,32.941176%);stop-opacity:1;"/>
<stop offset="0.3793" style="stop-color:rgb(94.509804%,36.078431%,23.529412%);stop-opacity:1;"/>
<stop offset="0.5394" style="stop-color:rgb(85.098039%,28.235294%,40.392157%);stop-opacity:1;"/>
<stop offset="0.6995" style="stop-color:rgb(76.470588%,18.431373%,52.941176%);stop-opacity:1;"/>
<stop offset="0.9122" style="stop-color:rgb(49.019608%,38.823529%,65.490196%);stop-opacity:1;"/>
<stop offset="0.9852" style="stop-color:rgb(36.078431%,42.352941%,70.196078%);stop-opacity:1;"/>
</radialGradient>
<radialGradient id="radial1" gradientUnits="userSpaceOnUse" cx="228.1541" cy="398.6691" fx="228.1541" fy="398.6691" r="134.0828" gradientTransform="matrix(0.166015,0,0,0.166015,0,0)">
<stop offset="0" style="stop-color:rgb(100%,84.313725%,46.27451%);stop-opacity:1;"/>
<stop offset="0.2463" style="stop-color:rgb(95.294118%,64.705882%,32.941176%);stop-opacity:1;"/>
<stop offset="0.3793" style="stop-color:rgb(94.509804%,36.078431%,23.529412%);stop-opacity:1;"/>
<stop offset="0.607" style="stop-color:rgb(85.098039%,28.235294%,40.392157%);stop-opacity:1;"/>
<stop offset="0.8346" style="stop-color:rgb(76.470588%,18.431373%,52.941176%);stop-opacity:1;"/>
<stop offset="0.9577" style="stop-color:rgb(49.019608%,38.823529%,65.490196%);stop-opacity:1;"/>
<stop offset="1" style="stop-color:rgb(36.078431%,42.352941%,70.196078%);stop-opacity:1;"/>
</radialGradient>
<radialGradient id="radial2" gradientUnits="userSpaceOnUse" cx="318.6223" cy="278.8304" fx="318.6223" fy="278.8304" r="31.333" gradientTransform="matrix(0.166015,0,0,0.166015,0,0)">
<stop offset="0" style="stop-color:rgb(37.254902%,42.745098%,70.196078%);stop-opacity:1;"/>
<stop offset="1" style="stop-color:rgb(36.078431%,42.352941%,70.196078%);stop-opacity:1;"/>
</radialGradient>
</defs>
<g id="surface1">
<path style=" stroke:none;fill-rule:nonzero;fill:url(#radial0);" d="M 62.871094 41.121094 C 62.320312 39.710938 61.59375 38.515625 60.398438 37.320312 C 59.203125 36.125 58.007812 35.394531 56.59375 34.847656 C 55.234375 34.316406 53.65625 33.949219 51.382812 33.851562 C 49.089844 33.75 48.359375 33.71875 42.515625 33.71875 C 36.671875 33.71875 35.941406 33.734375 33.652344 33.851562 C 31.359375 33.949219 29.800781 34.316406 28.4375 34.847656 C 27.027344 35.394531 25.832031 36.125 24.636719 37.320312 C 23.441406 38.515625 22.710938 39.710938 22.164062 41.121094 C 21.632812 42.484375 21.265625 44.0625 21.167969 46.335938 C 21.066406 48.625 21.035156 49.355469 21.035156 55.199219 C 21.035156 61.042969 21.050781 61.773438 21.167969 64.066406 C 21.265625 66.355469 21.632812 67.917969 22.164062 69.277344 C 22.710938 70.6875 23.441406 71.882812 24.636719 73.078125 C 25.832031 74.273438 27.027344 75.007812 28.4375 75.554688 C 29.800781 76.085938 31.375 76.449219 33.652344 76.550781 C 35.941406 76.648438 36.671875 76.683594 42.515625 76.683594 C 48.359375 76.683594 49.089844 76.664062 51.382812 76.550781 C 53.671875 76.449219 55.234375 76.085938 56.59375 75.554688 C 58.007812 75.007812 59.203125 74.273438 60.398438 73.078125 C 61.59375 71.882812 62.320312 70.6875 62.871094 69.277344 C 63.402344 67.917969 63.765625 66.339844 63.867188 64.066406 C 63.964844 61.773438 64 61.042969 64 55.199219 C 64 49.355469 63.984375 48.625 63.867188 46.335938 C 63.765625 44.042969 63.402344 42.484375 62.871094 41.121094 Z M 60 63.882812 C 59.898438 65.976562 59.550781 67.121094 59.25 67.867188 C 58.867188 68.863281 58.386719 69.59375 57.640625 70.339844 C 56.894531 71.085938 56.179688 71.554688 55.167969 71.953125 C 54.402344 72.25 53.273438 72.597656 51.183594 72.699219 C 48.90625 72.796875 48.242188 72.832031 42.5 72.832031 C 36.757812 72.832031 36.074219 72.8125 33.816406 72.699219 C 31.726562 72.597656 30.578125 72.25 29.832031 71.953125 C 28.835938 71.570312 28.105469 71.085938 27.359375 70.339844 C 26.613281 69.59375 26.148438 68.878906 25.75 67.867188 C 25.449219 67.101562 25.101562 65.976562 25 63.882812 C 24.902344 61.609375 24.867188 60.929688 24.867188 55.199219 C 24.867188 49.472656 24.886719 48.773438 25 46.515625 C 25.101562 44.425781 25.449219 43.28125 25.75 42.53125 C 26.132812 41.539062 26.613281 40.804688 27.359375 40.058594 C 28.105469 39.3125 28.820312 38.847656 29.832031 38.449219 C 30.597656 38.148438 31.726562 37.800781 33.816406 37.703125 C 36.09375 37.601562 36.773438 37.570312 42.5 37.570312 C 48.226562 37.570312 48.925781 37.585938 51.183594 37.703125 C 53.273438 37.800781 54.421875 38.148438 55.167969 38.449219 C 56.164062 38.832031 56.894531 39.3125 57.640625 40.058594 C 58.386719 40.804688 58.851562 41.519531 59.25 42.53125 C 59.550781 43.296875 59.898438 44.425781 60 46.515625 C 60.097656 48.792969 60.132812 49.472656 60.132812 55.199219 C 60.132812 60.929688 60.097656 61.625 60 63.882812 Z M 60 63.882812 "/>
<path style=" stroke:none;fill-rule:nonzero;fill:url(#radial1);" d="M 42.5 44.160156 C 36.40625 44.160156 31.460938 49.109375 31.460938 55.199219 C 31.460938 61.292969 36.40625 66.242188 42.5 66.242188 C 48.59375 66.242188 53.539062 61.292969 53.539062 55.199219 C 53.539062 49.109375 48.59375 44.160156 42.5 44.160156 Z M 42.5 62.371094 C 38.546875 62.371094 35.328125 59.167969 35.328125 55.199219 C 35.328125 51.25 38.53125 48.027344 42.5 48.027344 C 46.46875 48.027344 49.671875 51.234375 49.671875 55.199219 C 49.671875 59.152344 46.453125 62.371094 42.5 62.371094 Z M 42.5 62.371094 "/>
<path style=" stroke:none;fill-rule:nonzero;fill:url(#radial2);" d="M 56.546875 43.726562 C 56.546875 45.148438 55.394531 46.300781 53.972656 46.300781 C 52.550781 46.300781 51.398438 45.148438 51.398438 43.726562 C 51.398438 42.308594 52.550781 41.15625 53.972656 41.15625 C 55.394531 41.15625 56.546875 42.308594 56.546875 43.726562 Z M 56.546875 43.726562 "/>
</g>
</svg>
