<?xml version="1.0" encoding="UTF-8"?>
<svg xmlns="http://www.w3.org/2000/svg" xmlns:xlink="http://www.w3.org/1999/xlink" width="120px" height="120px" viewBox="0 0 120 120" version="1.1">
<defs>
<radialGradient id="radial0" gradientUnits="userSpaceOnUse" cx="201.7737" cy="461.3592" fx="201.7737" fy="461.3592" r="261.1088" gradientTransform="matrix(0.234375,0,0,0.234375,0,0)">
<stop offset="0" style="stop-color:rgb(100%,84.313725%,46.27451%);stop-opacity:1;"/>
<stop offset="0.2463" style="stop-color:rgb(95.294118%,64.705882%,32.941176%);stop-opacity:1;"/>
<stop offset="0.3793" style="stop-color:rgb(94.509804%,36.078431%,23.529412%);stop-opacity:1;"/>
<stop offset="0.5394" style="stop-color:rgb(85.098039%,28.235294%,40.392157%);stop-opacity:1;"/>
<stop offset="0.6995" style="stop-color:rgb(76.470588%,18.431373%,52.941176%);stop-opacity:1;"/>
<stop offset="0.9122" style="stop-color:rgb(49.019608%,38.823529%,65.490196%);stop-opacity:1;"/>
<stop offset="0.9852" style="stop-color:rgb(36.078431%,42.352941%,70.196078%);stop-opacity:1;"/>
</radialGradient>
<radialGradient id="radial1" gradientUnits="userSpaceOnUse" cx="228.1541" cy="398.6691" fx="228.1541" fy="398.6691" r="134.0828" gradientTransform="matrix(0.234375,0,0,0.234375,0,0)">
<stop offset="0" style="stop-color:rgb(100%,84.313725%,46.27451%);stop-opacity:1;"/>
<stop offset="0.2463" style="stop-color:rgb(95.294118%,64.705882%,32.941176%);stop-opacity:1;"/>
<stop offset="0.3793" style="stop-color:rgb(94.509804%,36.078431%,23.529412%);stop-opacity:1;"/>
<stop offset="0.607" style="stop-color:rgb(85.098039%,28.235294%,40.392157%);stop-opacity:1;"/>
<stop offset="0.8346" style="stop-color:rgb(76.470588%,18.431373%,52.941176%);stop-opacity:1;"/>
<stop offset="0.9577" style="stop-color:rgb(49.019608%,38.823529%,65.490196%);stop-opacity:1;"/>
<stop offset="1" style="stop-color:rgb(36.078431%,42.352941%,70.196078%);stop-opacity:1;"/>
</radialGradient>
<radialGradient id="radial2" gradientUnits="userSpaceOnUse" cx="318.6223" cy="278.8304" fx="318.6223" fy="278.8304" r="31.333" gradientTransform="matrix(0.234375,0,0,0.234375,0,0)">
<stop offset="0" style="stop-color:rgb(37.254902%,42.745098%,70.196078%);stop-opacity:1;"/>
<stop offset="1" style="stop-color:rgb(36.078431%,42.352941%,70.196078%);stop-opacity:1;"/>
</radialGradient>
</defs>
<g id="surface1">
<path style=" stroke:none;fill-rule:nonzero;fill:url(#radial0);" d="M 88.757812 58.054688 C 87.984375 56.0625 86.953125 54.375 85.265625 52.6875 C 83.578125 51 81.890625 49.96875 79.898438 49.195312 C 77.976562 48.445312 75.75 47.929688 72.539062 47.789062 C 69.304688 47.648438 68.273438 47.601562 60.023438 47.601562 C 51.773438 47.601562 50.742188 47.625 47.507812 47.789062 C 44.273438 47.929688 42.070312 48.445312 40.148438 49.195312 C 38.15625 49.96875 36.46875 51 34.78125 52.6875 C 33.09375 54.375 32.0625 56.0625 31.289062 58.054688 C 30.539062 59.976562 30.023438 62.203125 29.882812 65.414062 C 29.742188 68.648438 29.695312 69.679688 29.695312 77.929688 C 29.695312 86.179688 29.71875 87.210938 29.882812 90.445312 C 30.023438 93.679688 30.539062 95.882812 31.289062 97.804688 C 32.0625 99.796875 33.09375 101.484375 34.78125 103.171875 C 36.46875 104.859375 38.15625 105.890625 40.148438 106.664062 C 42.070312 107.414062 44.296875 107.929688 47.507812 108.070312 C 50.742188 108.210938 51.773438 108.257812 60.023438 108.257812 C 68.273438 108.257812 69.304688 108.234375 72.539062 108.070312 C 75.773438 107.929688 77.976562 107.414062 79.898438 106.664062 C 81.890625 105.890625 83.578125 104.859375 85.265625 103.171875 C 86.953125 101.484375 87.984375 99.796875 88.757812 97.804688 C 89.507812 95.882812 90.023438 93.65625 90.164062 90.445312 C 90.304688 87.210938 90.351562 86.179688 90.351562 77.929688 C 90.351562 69.679688 90.328125 68.648438 90.164062 65.414062 C 90.023438 62.179688 89.507812 59.976562 88.757812 58.054688 Z M 84.703125 90.1875 C 84.5625 93.140625 84.070312 94.757812 83.648438 95.8125 C 83.109375 97.21875 82.429688 98.25 81.375 99.304688 C 80.320312 100.359375 79.3125 101.015625 77.882812 101.578125 C 76.804688 102 75.210938 102.492188 72.257812 102.632812 C 69.046875 102.773438 68.109375 102.820312 60 102.820312 C 51.890625 102.820312 50.929688 102.796875 47.742188 102.632812 C 44.789062 102.492188 43.171875 102 42.117188 101.578125 C 40.710938 101.039062 39.679688 100.359375 38.625 99.304688 C 37.570312 98.25 36.914062 97.242188 36.351562 95.8125 C 35.929688 94.734375 35.4375 93.140625 35.296875 90.1875 C 35.15625 86.976562 35.109375 86.015625 35.109375 77.929688 C 35.109375 69.84375 35.132812 68.859375 35.296875 65.671875 C 35.4375 62.71875 35.929688 61.101562 36.351562 60.046875 C 36.890625 58.640625 37.570312 57.609375 38.625 56.554688 C 39.679688 55.5 40.6875 54.84375 42.117188 54.28125 C 43.195312 53.859375 44.789062 53.367188 47.742188 53.226562 C 50.953125 53.085938 51.914062 53.039062 60 53.039062 C 68.085938 53.039062 69.070312 53.0625 72.257812 53.226562 C 75.210938 53.367188 76.828125 53.859375 77.882812 54.28125 C 79.289062 54.820312 80.320312 55.5 81.375 56.554688 C 82.429688 57.609375 83.085938 58.617188 83.648438 60.046875 C 84.070312 61.125 84.5625 62.71875 84.703125 65.671875 C 84.84375 68.882812 84.890625 69.84375 84.890625 77.929688 C 84.890625 86.015625 84.84375 87 84.703125 90.1875 Z M 84.703125 90.1875 "/>
<path style=" stroke:none;fill-rule:nonzero;fill:url(#radial1);" d="M 60 62.34375 C 51.398438 62.34375 44.414062 69.328125 44.414062 77.929688 C 44.414062 86.53125 51.398438 93.515625 60 93.515625 C 68.601562 93.515625 75.585938 86.53125 75.585938 77.929688 C 75.585938 69.328125 68.601562 62.34375 60 62.34375 Z M 60 88.054688 C 54.421875 88.054688 49.875 83.53125 49.875 77.929688 C 49.875 72.351562 54.398438 67.804688 60 67.804688 C 65.601562 67.804688 70.125 72.328125 70.125 77.929688 C 70.125 83.507812 65.578125 88.054688 60 88.054688 Z M 60 88.054688 "/>
<path style=" stroke:none;fill-rule:nonzero;fill:url(#radial2);" d="M 79.828125 61.734375 C 79.828125 63.742188 78.203125 65.367188 76.195312 65.367188 C 74.1875 65.367188 72.5625 63.742188 72.5625 61.734375 C 72.5625 59.726562 74.1875 58.101562 76.195312 58.101562 C 78.203125 58.101562 79.828125 59.726562 79.828125 61.734375 Z M 79.828125 61.734375 "/>
</g>
</svg>
