<?xml version="1.0" encoding="UTF-8"?>
<svg xmlns="http://www.w3.org/2000/svg" xmlns:xlink="http://www.w3.org/1999/xlink" width="110px" height="110px" viewBox="0 0 110 110" version="1.1">
<defs>
<radialGradient id="radial0" gradientUnits="userSpaceOnUse" cx="201.7737" cy="461.3592" fx="201.7737" fy="461.3592" r="261.1088" gradientTransform="matrix(0.214844,0,0,0.214844,0,0)">
<stop offset="0" style="stop-color:rgb(100%,84.313725%,46.27451%);stop-opacity:1;"/>
<stop offset="0.2463" style="stop-color:rgb(95.294118%,64.705882%,32.941176%);stop-opacity:1;"/>
<stop offset="0.3793" style="stop-color:rgb(94.509804%,36.078431%,23.529412%);stop-opacity:1;"/>
<stop offset="0.5394" style="stop-color:rgb(85.098039%,28.235294%,40.392157%);stop-opacity:1;"/>
<stop offset="0.6995" style="stop-color:rgb(76.470588%,18.431373%,52.941176%);stop-opacity:1;"/>
<stop offset="0.9122" style="stop-color:rgb(49.019608%,38.823529%,65.490196%);stop-opacity:1;"/>
<stop offset="0.9852" style="stop-color:rgb(36.078431%,42.352941%,70.196078%);stop-opacity:1;"/>
</radialGradient>
<radialGradient id="radial1" gradientUnits="userSpaceOnUse" cx="228.1541" cy="398.6691" fx="228.1541" fy="398.6691" r="134.0828" gradientTransform="matrix(0.214844,0,0,0.214844,0,0)">
<stop offset="0" style="stop-color:rgb(100%,84.313725%,46.27451%);stop-opacity:1;"/>
<stop offset="0.2463" style="stop-color:rgb(95.294118%,64.705882%,32.941176%);stop-opacity:1;"/>
<stop offset="0.3793" style="stop-color:rgb(94.509804%,36.078431%,23.529412%);stop-opacity:1;"/>
<stop offset="0.607" style="stop-color:rgb(85.098039%,28.235294%,40.392157%);stop-opacity:1;"/>
<stop offset="0.8346" style="stop-color:rgb(76.470588%,18.431373%,52.941176%);stop-opacity:1;"/>
<stop offset="0.9577" style="stop-color:rgb(49.019608%,38.823529%,65.490196%);stop-opacity:1;"/>
<stop offset="1" style="stop-color:rgb(36.078431%,42.352941%,70.196078%);stop-opacity:1;"/>
</radialGradient>
<radialGradient id="radial2" gradientUnits="userSpaceOnUse" cx="318.6223" cy="278.8304" fx="318.6223" fy="278.8304" r="31.333" gradientTransform="matrix(0.214844,0,0,0.214844,0,0)">
<stop offset="0" style="stop-color:rgb(37.254902%,42.745098%,70.196078%);stop-opacity:1;"/>
<stop offset="1" style="stop-color:rgb(36.078431%,42.352941%,70.196078%);stop-opacity:1;"/>
</radialGradient>
</defs>
<g id="surface1">
<path style=" stroke:none;fill-rule:nonzero;fill:url(#radial0);" d="M 81.359375 53.21875 C 80.652344 51.390625 79.707031 49.84375 78.160156 48.296875 C 76.613281 46.75 75.066406 45.804688 73.242188 45.09375 C 71.480469 44.40625 69.4375 43.933594 66.496094 43.804688 C 63.53125 43.675781 62.585938 43.632812 55.023438 43.632812 C 47.460938 43.632812 46.515625 43.65625 43.550781 43.804688 C 40.585938 43.933594 38.566406 44.40625 36.804688 45.09375 C 34.976562 45.804688 33.429688 46.75 31.882812 48.296875 C 30.335938 49.84375 29.390625 51.390625 28.683594 53.21875 C 27.996094 54.976562 27.523438 57.019531 27.394531 59.960938 C 27.265625 62.925781 27.222656 63.871094 27.222656 71.433594 C 27.222656 78.996094 27.242188 79.941406 27.394531 82.90625 C 27.523438 85.871094 27.996094 87.890625 28.683594 89.652344 C 29.390625 91.480469 30.335938 93.027344 31.882812 94.574219 C 33.429688 96.121094 34.976562 97.066406 36.804688 97.773438 C 38.566406 98.460938 40.605469 98.933594 43.550781 99.0625 C 46.515625 99.191406 47.460938 99.234375 55.023438 99.234375 C 62.585938 99.234375 63.53125 99.214844 66.496094 99.0625 C 69.460938 98.933594 71.480469 98.460938 73.242188 97.773438 C 75.066406 97.066406 76.613281 96.121094 78.160156 94.574219 C 79.707031 93.027344 80.652344 91.480469 81.359375 89.652344 C 82.046875 87.890625 82.519531 85.851562 82.648438 82.90625 C 82.78125 79.941406 82.820312 78.996094 82.820312 71.433594 C 82.820312 63.871094 82.800781 62.925781 82.648438 59.960938 C 82.523438 57 82.046875 54.976562 81.359375 53.21875 Z M 77.644531 82.671875 C 77.515625 85.378906 77.0625 86.859375 76.679688 87.828125 C 76.183594 89.117188 75.5625 90.0625 74.59375 91.03125 C 73.625 91.996094 72.703125 92.597656 71.390625 93.113281 C 70.40625 93.5 68.945312 93.949219 66.234375 94.078125 C 63.292969 94.210938 62.433594 94.25 55 94.25 C 47.566406 94.25 46.6875 94.230469 43.765625 94.078125 C 41.054688 93.949219 39.574219 93.5 38.609375 93.113281 C 37.320312 92.617188 36.371094 91.996094 35.40625 91.03125 C 34.4375 90.0625 33.835938 89.140625 33.320312 87.828125 C 32.933594 86.839844 32.484375 85.378906 32.355469 82.671875 C 32.226562 79.726562 32.183594 78.847656 32.183594 71.4375 C 32.183594 64.023438 32.203125 63.121094 32.355469 60.199219 C 32.484375 57.492188 32.933594 56.007812 33.320312 55.042969 C 33.816406 53.753906 34.4375 52.808594 35.40625 51.839844 C 36.371094 50.875 37.296875 50.273438 38.609375 49.757812 C 39.59375 49.371094 41.054688 48.921875 43.765625 48.789062 C 46.707031 48.664062 47.585938 48.617188 55 48.617188 C 62.414062 48.617188 63.3125 48.640625 66.234375 48.789062 C 68.945312 48.921875 70.425781 49.371094 71.390625 49.757812 C 72.679688 50.25 73.625 50.875 74.59375 51.839844 C 75.5625 52.808594 76.164062 53.734375 76.679688 55.042969 C 77.0625 56.03125 77.515625 57.492188 77.644531 60.199219 C 77.773438 63.140625 77.816406 64.023438 77.816406 71.4375 C 77.816406 78.847656 77.773438 79.75 77.644531 82.671875 Z M 77.644531 82.671875 "/>
<path style=" stroke:none;fill-rule:nonzero;fill:url(#radial1);" d="M 55 57.148438 C 47.117188 57.148438 40.710938 63.550781 40.710938 71.4375 C 40.710938 79.320312 47.117188 85.722656 55 85.722656 C 62.882812 85.722656 69.289062 79.320312 69.289062 71.4375 C 69.289062 63.550781 62.882812 57.148438 55 57.148438 Z M 55 80.71875 C 49.886719 80.71875 45.71875 76.570312 45.71875 71.4375 C 45.71875 66.320312 49.867188 62.15625 55 62.15625 C 60.132812 62.15625 64.28125 66.300781 64.28125 71.4375 C 64.28125 76.546875 60.113281 80.71875 55 80.71875 Z M 55 80.71875 "/>
<path style=" stroke:none;fill-rule:nonzero;fill:url(#radial2);" d="M 73.175781 56.589844 C 73.175781 58.429688 71.683594 59.917969 69.84375 59.917969 C 68.007812 59.917969 66.515625 58.429688 66.515625 56.589844 C 66.515625 54.75 68.007812 53.257812 69.84375 53.257812 C 71.683594 53.257812 73.175781 54.75 73.175781 56.589844 Z M 73.175781 56.589844 "/>
</g>
</svg>
