<?xml version="1.0" encoding="UTF-8"?>
<svg xmlns="http://www.w3.org/2000/svg" xmlns:xlink="http://www.w3.org/1999/xlink" width="150px" height="150px" viewBox="0 0 150 150" version="1.1">
<defs>
<radialGradient id="radial0" gradientUnits="userSpaceOnUse" cx="201.7737" cy="461.3592" fx="201.7737" fy="461.3592" r="261.1088" gradientTransform="matrix(0.292969,0,0,0.292969,0,0)">
<stop offset="0" style="stop-color:rgb(100%,84.313725%,46.27451%);stop-opacity:1;"/>
<stop offset="0.2463" style="stop-color:rgb(95.294118%,64.705882%,32.941176%);stop-opacity:1;"/>
<stop offset="0.3793" style="stop-color:rgb(94.509804%,36.078431%,23.529412%);stop-opacity:1;"/>
<stop offset="0.5394" style="stop-color:rgb(85.098039%,28.235294%,40.392157%);stop-opacity:1;"/>
<stop offset="0.6995" style="stop-color:rgb(76.470588%,18.431373%,52.941176%);stop-opacity:1;"/>
<stop offset="0.9122" style="stop-color:rgb(49.019608%,38.823529%,65.490196%);stop-opacity:1;"/>
<stop offset="0.9852" style="stop-color:rgb(36.078431%,42.352941%,70.196078%);stop-opacity:1;"/>
</radialGradient>
<radialGradient id="radial1" gradientUnits="userSpaceOnUse" cx="228.1541" cy="398.6691" fx="228.1541" fy="398.6691" r="134.0828" gradientTransform="matrix(0.292969,0,0,0.292969,0,0)">
<stop offset="0" style="stop-color:rgb(100%,84.313725%,46.27451%);stop-opacity:1;"/>
<stop offset="0.2463" style="stop-color:rgb(95.294118%,64.705882%,32.941176%);stop-opacity:1;"/>
<stop offset="0.3793" style="stop-color:rgb(94.509804%,36.078431%,23.529412%);stop-opacity:1;"/>
<stop offset="0.607" style="stop-color:rgb(85.098039%,28.235294%,40.392157%);stop-opacity:1;"/>
<stop offset="0.8346" style="stop-color:rgb(76.470588%,18.431373%,52.941176%);stop-opacity:1;"/>
<stop offset="0.9577" style="stop-color:rgb(49.019608%,38.823529%,65.490196%);stop-opacity:1;"/>
<stop offset="1" style="stop-color:rgb(36.078431%,42.352941%,70.196078%);stop-opacity:1;"/>
</radialGradient>
<radialGradient id="radial2" gradientUnits="userSpaceOnUse" cx="318.6223" cy="278.8304" fx="318.6223" fy="278.8304" r="31.333" gradientTransform="matrix(0.292969,0,0,0.292969,0,0)">
<stop offset="0" style="stop-color:rgb(37.254902%,42.745098%,70.196078%);stop-opacity:1;"/>
<stop offset="1" style="stop-color:rgb(36.078431%,42.352941%,70.196078%);stop-opacity:1;"/>
</radialGradient>
</defs>
<g id="surface1">
<path style=" stroke:none;fill-rule:nonzero;fill:url(#radial0);" d="M 110.945312 72.570312 C 109.980469 70.078125 108.691406 67.96875 106.582031 65.859375 C 104.472656 63.75 102.363281 62.460938 99.875 61.492188 C 97.472656 60.554688 94.6875 59.910156 90.675781 59.734375 C 86.632812 59.558594 85.34375 59.5 75.03125 59.5 C 64.71875 59.5 63.429688 59.53125 59.386719 59.734375 C 55.34375 59.910156 52.589844 60.554688 50.1875 61.492188 C 47.695312 62.460938 45.585938 63.75 43.476562 65.859375 C 41.367188 67.96875 40.078125 70.078125 39.113281 72.570312 C 38.175781 74.96875 37.53125 77.753906 37.355469 81.765625 C 37.179688 85.8125 37.121094 87.097656 37.121094 97.410156 C 37.121094 107.722656 37.148438 109.011719 37.355469 113.054688 C 37.53125 117.097656 38.175781 119.851562 39.113281 122.253906 C 40.078125 124.746094 41.367188 126.855469 43.476562 128.964844 C 45.585938 131.074219 47.695312 132.363281 50.1875 133.328125 C 52.589844 134.265625 55.371094 134.910156 59.386719 135.085938 C 63.429688 135.261719 64.71875 135.320312 75.03125 135.320312 C 85.34375 135.320312 86.632812 135.292969 90.675781 135.085938 C 94.71875 134.910156 97.472656 134.265625 99.875 133.328125 C 102.363281 132.363281 104.472656 131.074219 106.582031 128.964844 C 108.691406 126.855469 109.980469 124.746094 110.945312 122.253906 C 111.882812 119.851562 112.527344 117.070312 112.703125 113.054688 C 112.882812 109.011719 112.9375 107.722656 112.9375 97.410156 C 112.9375 87.097656 112.910156 85.808594 112.703125 81.765625 C 112.53125 77.726562 111.882812 74.96875 110.945312 72.570312 Z M 105.878906 112.734375 C 105.703125 116.425781 105.085938 118.445312 104.5625 119.765625 C 103.886719 121.523438 103.039062 122.8125 101.71875 124.132812 C 100.398438 125.449219 99.140625 126.269531 97.351562 126.972656 C 96.007812 127.5 94.015625 128.117188 90.320312 128.289062 C 86.308594 128.46875 85.136719 128.523438 75 128.523438 C 64.863281 128.523438 63.664062 128.496094 59.679688 128.289062 C 55.984375 128.117188 53.964844 127.5 52.648438 126.972656 C 50.890625 126.296875 49.597656 125.449219 48.28125 124.132812 C 46.960938 122.8125 46.140625 121.554688 45.4375 119.765625 C 44.910156 118.417969 44.296875 116.425781 44.121094 112.734375 C 43.945312 108.71875 43.886719 107.519531 43.886719 97.414062 C 43.886719 87.304688 43.914062 86.074219 44.121094 82.089844 C 44.296875 78.398438 44.910156 76.375 45.4375 75.058594 C 46.113281 73.300781 46.960938 72.011719 48.28125 70.695312 C 49.597656 69.375 50.859375 68.554688 52.648438 67.851562 C 53.992188 67.324219 55.984375 66.710938 59.679688 66.53125 C 63.691406 66.359375 64.890625 66.296875 75 66.296875 C 85.109375 66.296875 86.335938 66.328125 90.320312 66.53125 C 94.015625 66.710938 96.035156 67.324219 97.351562 67.851562 C 99.109375 68.523438 100.398438 69.375 101.71875 70.695312 C 103.039062 72.011719 103.859375 73.273438 104.5625 75.058594 C 105.085938 76.40625 105.703125 78.398438 105.878906 82.089844 C 106.054688 86.101562 106.113281 87.304688 106.113281 97.414062 C 106.113281 107.519531 106.054688 108.75 105.878906 112.734375 Z M 105.878906 112.734375 "/>
<path style=" stroke:none;fill-rule:nonzero;fill:url(#radial1);" d="M 75 77.929688 C 64.25 77.929688 55.515625 86.660156 55.515625 97.414062 C 55.515625 108.164062 64.25 116.894531 75 116.894531 C 85.75 116.894531 94.484375 108.164062 94.484375 97.414062 C 94.484375 86.660156 85.75 77.929688 75 77.929688 Z M 75 110.070312 C 68.027344 110.070312 62.34375 104.414062 62.34375 97.414062 C 62.34375 90.4375 68 84.757812 75 84.757812 C 82 84.757812 87.65625 90.410156 87.65625 97.414062 C 87.65625 104.382812 81.972656 110.070312 75 110.070312 Z M 75 110.070312 "/>
<path style=" stroke:none;fill-rule:nonzero;fill:url(#radial2);" d="M 99.785156 77.167969 C 99.785156 79.675781 97.753906 81.710938 95.242188 81.710938 C 92.734375 81.710938 90.703125 79.675781 90.703125 77.167969 C 90.703125 74.660156 92.734375 72.625 95.242188 72.625 C 97.753906 72.625 99.785156 74.660156 99.785156 77.167969 Z M 99.785156 77.167969 "/>
</g>
</svg>
