<?xml version="1.0" encoding="UTF-8"?>
<svg xmlns="http://www.w3.org/2000/svg" xmlns:xlink="http://www.w3.org/1999/xlink" width="80px" height="80px" viewBox="0 0 80 80" version="1.1">
<defs>
<radialGradient id="radial0" gradientUnits="userSpaceOnUse" cx="201.7737" cy="461.3592" fx="201.7737" fy="461.3592" r="261.1088" gradientTransform="matrix(0.15625,0,0,0.15625,0,0)">
<stop offset="0" style="stop-color:rgb(100%,84.313725%,46.27451%);stop-opacity:1;"/>
<stop offset="0.2463" style="stop-color:rgb(95.294118%,64.705882%,32.941176%);stop-opacity:1;"/>
<stop offset="0.3793" style="stop-color:rgb(94.509804%,36.078431%,23.529412%);stop-opacity:1;"/>
<stop offset="0.5394" style="stop-color:rgb(85.098039%,28.235294%,40.392157%);stop-opacity:1;"/>
<stop offset="0.6995" style="stop-color:rgb(76.470588%,18.431373%,52.941176%);stop-opacity:1;"/>
<stop offset="0.9122" style="stop-color:rgb(49.019608%,38.823529%,65.490196%);stop-opacity:1;"/>
<stop offset="0.9852" style="stop-color:rgb(36.078431%,42.352941%,70.196078%);stop-opacity:1;"/>
</radialGradient>
<radialGradient id="radial1" gradientUnits="userSpaceOnUse" cx="228.1541" cy="398.6691" fx="228.1541" fy="398.6691" r="134.0828" gradientTransform="matrix(0.15625,0,0,0.15625,0,0)">
<stop offset="0" style="stop-color:rgb(100%,84.313725%,46.27451%);stop-opacity:1;"/>
<stop offset="0.2463" style="stop-color:rgb(95.294118%,64.705882%,32.941176%);stop-opacity:1;"/>
<stop offset="0.3793" style="stop-color:rgb(94.509804%,36.078431%,23.529412%);stop-opacity:1;"/>
<stop offset="0.607" style="stop-color:rgb(85.098039%,28.235294%,40.392157%);stop-opacity:1;"/>
<stop offset="0.8346" style="stop-color:rgb(76.470588%,18.431373%,52.941176%);stop-opacity:1;"/>
<stop offset="0.9577" style="stop-color:rgb(49.019608%,38.823529%,65.490196%);stop-opacity:1;"/>
<stop offset="1" style="stop-color:rgb(36.078431%,42.352941%,70.196078%);stop-opacity:1;"/>
</radialGradient>
<radialGradient id="radial2" gradientUnits="userSpaceOnUse" cx="318.6223" cy="278.8304" fx="318.6223" fy="278.8304" r="31.333" gradientTransform="matrix(0.15625,0,0,0.15625,0,0)">
<stop offset="0" style="stop-color:rgb(37.254902%,42.745098%,70.196078%);stop-opacity:1;"/>
<stop offset="1" style="stop-color:rgb(36.078431%,42.352941%,70.196078%);stop-opacity:1;"/>
</radialGradient>
</defs>
<g id="surface1">
<path style=" stroke:none;fill-rule:nonzero;fill:url(#radial0);" d="M 59.171875 38.703125 C 58.65625 37.375 57.96875 36.25 56.84375 35.125 C 55.71875 34 54.59375 33.3125 53.265625 32.796875 C 51.984375 32.296875 50.5 31.953125 48.359375 31.859375 C 46.203125 31.765625 45.515625 31.734375 40.015625 31.734375 C 34.515625 31.734375 33.828125 31.75 31.671875 31.859375 C 29.515625 31.953125 28.046875 32.296875 26.765625 32.796875 C 25.4375 33.3125 24.3125 34 23.1875 35.125 C 22.0625 36.25 21.375 37.375 20.859375 38.703125 C 20.359375 39.984375 20.015625 41.46875 19.921875 43.609375 C 19.828125 45.765625 19.796875 46.453125 19.796875 51.953125 C 19.796875 57.453125 19.8125 58.140625 19.921875 60.296875 C 20.015625 62.453125 20.359375 63.921875 20.859375 65.203125 C 21.375 66.53125 22.0625 67.65625 23.1875 68.78125 C 24.3125 69.90625 25.4375 70.59375 26.765625 71.109375 C 28.046875 71.609375 29.53125 71.953125 31.671875 72.046875 C 33.828125 72.140625 34.515625 72.171875 40.015625 72.171875 C 45.515625 72.171875 46.203125 72.15625 48.359375 72.046875 C 50.515625 71.953125 51.984375 71.609375 53.265625 71.109375 C 54.59375 70.59375 55.71875 69.90625 56.84375 68.78125 C 57.96875 67.65625 58.65625 66.53125 59.171875 65.203125 C 59.671875 63.921875 60.015625 62.4375 60.109375 60.296875 C 60.203125 58.140625 60.234375 57.453125 60.234375 51.953125 C 60.234375 46.453125 60.21875 45.765625 60.109375 43.609375 C 60.015625 41.453125 59.671875 39.984375 59.171875 38.703125 Z M 56.46875 60.125 C 56.375 62.09375 56.046875 63.171875 55.765625 63.875 C 55.40625 64.8125 54.953125 65.5 54.25 66.203125 C 53.546875 66.90625 52.875 67.34375 51.921875 67.71875 C 51.203125 68 50.140625 68.328125 48.171875 68.421875 C 46.03125 68.515625 45.40625 68.546875 40 68.546875 C 34.59375 68.546875 33.953125 68.53125 31.828125 68.421875 C 29.859375 68.328125 28.78125 68 28.078125 67.71875 C 27.140625 67.359375 26.453125 66.90625 25.75 66.203125 C 25.046875 65.5 24.609375 64.828125 24.234375 63.875 C 23.953125 63.15625 23.625 62.09375 23.53125 60.125 C 23.4375 57.984375 23.40625 57.34375 23.40625 51.953125 C 23.40625 46.5625 23.421875 45.90625 23.53125 43.78125 C 23.625 41.8125 23.953125 40.734375 24.234375 40.03125 C 24.59375 39.09375 25.046875 38.40625 25.75 37.703125 C 26.453125 37 27.125 36.5625 28.078125 36.1875 C 28.796875 35.90625 29.859375 35.578125 31.828125 35.484375 C 33.96875 35.390625 34.609375 35.359375 40 35.359375 C 45.390625 35.359375 46.046875 35.375 48.171875 35.484375 C 50.140625 35.578125 51.21875 35.90625 51.921875 36.1875 C 52.859375 36.546875 53.546875 37 54.25 37.703125 C 54.953125 38.40625 55.390625 39.078125 55.765625 40.03125 C 56.046875 40.75 56.375 41.8125 56.46875 43.78125 C 56.5625 45.921875 56.59375 46.5625 56.59375 51.953125 C 56.59375 57.34375 56.5625 58 56.46875 60.125 Z M 56.46875 60.125 "/>
<path style=" stroke:none;fill-rule:nonzero;fill:url(#radial1);" d="M 40 41.5625 C 34.265625 41.5625 29.609375 46.21875 29.609375 51.953125 C 29.609375 57.6875 34.265625 62.34375 40 62.34375 C 45.734375 62.34375 50.390625 57.6875 50.390625 51.953125 C 50.390625 46.21875 45.734375 41.5625 40 41.5625 Z M 40 58.703125 C 36.28125 58.703125 33.25 55.6875 33.25 51.953125 C 33.25 48.234375 36.265625 45.203125 40 45.203125 C 43.734375 45.203125 46.75 48.21875 46.75 51.953125 C 46.75 55.671875 43.71875 58.703125 40 58.703125 Z M 40 58.703125 "/>
<path style=" stroke:none;fill-rule:nonzero;fill:url(#radial2);" d="M 53.21875 41.15625 C 53.21875 42.492188 52.132812 43.578125 50.796875 43.578125 C 49.460938 43.578125 48.375 42.492188 48.375 41.15625 C 48.375 39.820312 49.460938 38.734375 50.796875 38.734375 C 52.132812 38.734375 53.21875 39.820312 53.21875 41.15625 Z M 53.21875 41.15625 "/>
</g>
</svg>
