<?xml version="1.0" encoding="UTF-8"?>
<svg xmlns="http://www.w3.org/2000/svg" xmlns:xlink="http://www.w3.org/1999/xlink" width="100px" height="100px" viewBox="0 0 100 100" version="1.1">
<g id="surface1">
<path style=" stroke:none;fill-rule:evenodd;fill:rgb(0%,0%,0%);fill-opacity:1;" d="M 93.75 50.265625 C 93.75 26.105469 74.160156 6.515625 50 6.515625 C 25.839844 6.515625 6.25 26.105469 6.25 50.265625 C 6.25 72.101562 22.246094 90.199219 43.164062 93.484375 L 43.164062 62.914062 L 32.054688 62.914062 L 32.054688 50.265625 L 43.164062 50.265625 L 43.164062 40.625 C 43.164062 29.664062 49.695312 23.601562 59.6875 23.601562 C 64.476562 23.601562 69.484375 24.457031 69.484375 24.457031 L 69.484375 35.226562 L 63.964844 35.226562 C 58.53125 35.226562 56.835938 38.59375 56.835938 42.0625 L 56.835938 50.265625 L 68.96875 50.265625 L 67.03125 62.914062 L 56.835938 62.914062 L 56.835938 93.488281 C 77.753906 90.203125 93.75 72.105469 93.75 50.261719 Z M 93.75 50.265625 "/>
</g>
</svg>
