<?xml version="1.0" encoding="UTF-8"?>
<svg xmlns="http://www.w3.org/2000/svg" xmlns:xlink="http://www.w3.org/1999/xlink" width="120px" height="120px" viewBox="0 0 120 120" version="1.1">
<g id="surface1">
<path style=" stroke:none;fill-rule:evenodd;fill:rgb(0%,0%,0%);fill-opacity:1;" d="M 112.5 60.316406 C 112.5 31.324219 88.992188 7.816406 60 7.816406 C 31.007812 7.816406 7.5 31.324219 7.5 60.316406 C 7.5 86.519531 26.695312 108.238281 51.796875 112.179688 L 51.796875 75.496094 L 38.464844 75.496094 L 38.464844 60.316406 L 51.796875 60.316406 L 51.796875 48.75 C 51.796875 35.59375 59.636719 28.320312 71.628906 28.320312 C 77.371094 28.320312 83.382812 29.347656 83.382812 29.347656 L 83.382812 42.269531 L 76.757812 42.269531 C 70.238281 42.269531 68.199219 46.316406 68.199219 50.472656 L 68.199219 60.316406 L 82.761719 60.316406 L 80.433594 75.496094 L 68.203125 75.496094 L 68.203125 112.1875 C 93.304688 108.246094 112.5 86.527344 112.5 60.316406 Z M 112.5 60.316406 "/>
</g>
</svg>
