<?xml version="1.0" encoding="UTF-8"?>
<svg xmlns="http://www.w3.org/2000/svg" xmlns:xlink="http://www.w3.org/1999/xlink" width="150px" height="150px" viewBox="0 0 150 150" version="1.1">
<g id="surface1">
<path style=" stroke:none;fill-rule:evenodd;fill:rgb(0%,0%,0%);fill-opacity:1;" d="M 140.625 75.394531 C 140.625 39.15625 111.242188 9.769531 75 9.769531 C 38.757812 9.769531 9.375 39.15625 9.375 75.394531 C 9.375 108.148438 33.367188 135.300781 64.746094 140.226562 L 64.746094 94.371094 L 48.078125 94.371094 L 48.078125 75.394531 L 64.746094 75.394531 L 64.746094 60.9375 C 64.746094 44.492188 74.546875 35.402344 89.535156 35.402344 C 96.714844 35.402344 104.226562 36.6875 104.226562 36.6875 L 104.226562 52.835938 L 95.945312 52.835938 C 87.800781 52.835938 85.25 57.894531 85.25 63.089844 L 85.25 75.394531 L 103.449219 75.394531 L 100.542969 94.371094 L 85.253906 94.371094 L 85.253906 140.234375 C 116.632812 135.308594 140.625 108.15625 140.625 75.394531 Z M 140.625 75.394531 "/>
</g>
</svg>
