<svg width="119" height="127" viewBox="0 0 119 127" fill="none" xmlns="http://www.w3.org/2000/svg">
<path d="M40.2995 89.7332V35.8579H34.562C34.5734 33.4403 34.5425 33.4122 34.562 31.3414H61.3708C66.6851 31.3414 71.0009 32.9723 74.3182 36.2342C77.6693 39.4603 79.3448 43.2599 79.3448 47.633C79.3448 53.1532 76.5522 57.6159 70.9671 61.0212C75.4013 62.7059 78.6509 64.9463 80.7157 67.7422C82.7805 70.5381 83.8129 73.6208 83.8129 76.9903C83.8129 80.0013 83.1359 82.7614 81.782 85.2705C80.428 87.7438 78.3463 89.8587 75.5368 91.6151C72.7611 93.3715 69.7316 94.2497 66.4482 94.2497H34.562C34.5612 91.9474 34.5179 92.0067 34.562 89.7332H40.2995ZM44.5645 59.3007H59.6444C62.8601 59.3007 65.805 58.6734 68.4791 57.4188C70.544 56.4151 72.1518 54.9634 73.3027 53.0636C74.4536 51.1638 75.029 49.2281 75.029 47.2567C75.029 44.4249 73.7766 41.8261 71.2717 39.4603C68.7669 37.0587 65.5004 35.8579 61.4723 35.8579H44.5645V59.3007ZM44.5645 89.7332H66.1435C68.8853 89.7332 71.2717 89.088 73.3027 87.7976C75.3337 86.5072 76.8738 84.9121 77.9231 83.0123C78.9725 81.1125 79.4971 79.141 79.4971 77.0978C79.4971 74.8037 78.7355 72.5813 77.2123 70.4306C75.7229 68.2799 73.6412 66.6489 70.9671 65.5377C68.293 64.4265 64.6034 63.8709 59.8983 63.8709H44.5645V89.7332Z" fill="url(#paint0_linear_4_9)"/>
<path d="M59.5 125.571H118L117.508 1H1V61.0871" stroke="url(#paint1_linear_4_9)" stroke-width="1.72061" stroke-linecap="square" stroke-linejoin="round"/>
<defs>
<linearGradient id="paint0_linear_4_9" x1="58.4756" y1="31.4785" x2="59.5153" y2="93.6139" gradientUnits="userSpaceOnUse">
<stop stop-color="#00FFBE"/>
<stop offset="1" stop-color="#00D2E5"/>
</linearGradient>
<linearGradient id="paint1_linear_4_9" x1="59.7175" y1="-0.221279" x2="60.2588" y2="139.005" gradientUnits="userSpaceOnUse">
<stop stop-color="#00FFC0"/>
<stop offset="1" stop-color="#00D2E5"/>
</linearGradient>
</defs>
</svg>
