<?xml version="1.0" encoding="UTF-8" standalone="no"?>
<!-- Created with Inkscape (http://www.inkscape.org/) -->

<svg
   width="96.429222"
   height="125.45845"
   viewBox="0 0 25.513565 33.194214"
   version="1.1"
   id="svg5"
   xml:space="preserve"
   xmlns:xlink="http://www.w3.org/1999/xlink"
   xmlns="http://www.w3.org/2000/svg"
   xmlns:svg="http://www.w3.org/2000/svg"><defs
     id="defs2"><linearGradient
       id="linearGradient2481"><stop
         style="stop-color:#00fec0;stop-opacity:1;"
         offset="0"
         id="stop2477" /><stop
         style="stop-color:#00d2e5;stop-opacity:1;"
         offset="1"
         id="stop2479" /></linearGradient><linearGradient
       id="linearGradient2085"><stop
         style="stop-color:#00ffc0;stop-opacity:1;"
         offset="0"
         id="stop2081" /><stop
         style="stop-color:#00d2e5;stop-opacity:1;"
         offset="1"
         id="stop2083" /></linearGradient><linearGradient
       id="linearGradient1156"><stop
         style="stop-color:#00ffbe;stop-opacity:1;"
         offset="0"
         id="stop1152" /><stop
         style="stop-color:#00d2e5;stop-opacity:1;"
         offset="1"
         id="stop1154" /></linearGradient><linearGradient
       xlink:href="#linearGradient1156"
       id="linearGradient25889"
       gradientUnits="userSpaceOnUse"
       gradientTransform="matrix(1.0630772,0,0,1.0630772,5.0531813,-5.5738127)"
       x1="101.59712"
       y1="60.27198"
       x2="102.47594"
       y2="115.88922" /><linearGradient
       xlink:href="#linearGradient1156"
       id="linearGradient25891"
       gradientUnits="userSpaceOnUse"
       gradientTransform="matrix(1.0630772,0,0,1.0630772,5.0531813,-5.5738127)"
       x1="101.59712"
       y1="60.27198"
       x2="102.47594"
       y2="115.88922" /><linearGradient
       xlink:href="#linearGradient2085"
       id="linearGradient25893"
       gradientUnits="userSpaceOnUse"
       gradientTransform="matrix(0.23663297,0,0,0.22205617,0.85678979,-0.58637513)"
       x1="100.75285"
       y1="30.923187"
       x2="101.24898"
       y2="157.7305" /><linearGradient
       xlink:href="#linearGradient2481"
       id="linearGradient25895"
       gradientUnits="userSpaceOnUse"
       gradientTransform="translate(11.641668,-1.0583333)"
       x1="99.806053"
       y1="159.34697"
       x2="100.11674"
       y2="177.58942" /><linearGradient
       xlink:href="#linearGradient2481"
       id="linearGradient25897"
       gradientUnits="userSpaceOnUse"
       gradientTransform="translate(11.641668,-1.0583333)"
       x1="99.806053"
       y1="159.34697"
       x2="100.11674"
       y2="177.58942" /><linearGradient
       xlink:href="#linearGradient2481"
       id="linearGradient25899"
       gradientUnits="userSpaceOnUse"
       gradientTransform="translate(11.641668,-1.0583333)"
       x1="99.806053"
       y1="159.34697"
       x2="100.11674"
       y2="177.58942" /><linearGradient
       xlink:href="#linearGradient2481"
       id="linearGradient25901"
       gradientUnits="userSpaceOnUse"
       gradientTransform="translate(11.641668,-1.0583333)"
       x1="99.806053"
       y1="159.34697"
       x2="100.11674"
       y2="177.58942" /><linearGradient
       xlink:href="#linearGradient2481"
       id="linearGradient25903"
       gradientUnits="userSpaceOnUse"
       gradientTransform="translate(11.641668,-1.0583333)"
       x1="99.806053"
       y1="159.34697"
       x2="100.11674"
       y2="177.58942" /></defs><g
     id="layer1"
     transform="translate(-68.251122,-171.13512)"><g
       id="g25887"
       transform="translate(56.356248,164.83542)"><g
         aria-label="B"
         id="g25873"
         style="font-size:104.779px;font-family:monospace;-inkscape-font-specification:'monospace, Normal';opacity:1;fill:url(#linearGradient25891);stroke-width:1.473;stroke-linecap:square;stroke-linejoin:round;paint-order:stroke fill markers"
         transform="matrix(0.21255174,0,0,0.21255174,0.40142692,0.25728495)"><path
           d="M 94.74392,113.93102 V 62.667079 h -5.781263 c 0.01145,-2.300433 -0.0196,-2.327102 0,-4.297576 h 27.013333 c 5.35492,0 9.70366,1.551903 13.04622,4.655708 3.37667,3.069697 5.065,6.685118 5.065,10.846263 0,5.252593 -2.81389,9.499008 -8.44167,12.739244 4.46811,1.603064 7.74246,3.734798 9.82303,6.395203 2.08057,2.660404 3.12086,5.59367 3.12086,8.799799 0,2.86505 -0.68216,5.49135 -2.04647,7.87889 -1.36431,2.35343 -3.46193,4.36579 -6.29287,6.03707 -2.79684,1.67128 -5.84948,2.50692 -9.15793,2.50692 H 88.962657 c -7.75e-4,-2.19072 -0.04447,-2.13433 0,-4.29758 z M 99.041496,84.973546 H 114.2365 c 3.24023,0 6.20761,-0.596886 8.90212,-1.790657 2.08057,-0.955017 3.70069,-2.33638 4.86035,-4.144091 1.15967,-1.807711 1.7395,-3.649529 1.7395,-5.525455 0,-2.694512 -1.26199,-5.167324 -3.78596,-7.418435 -2.52397,-2.285219 -5.81537,-3.427829 -9.87419,-3.427829 H 99.041496 Z m 0,28.957474 h 21.743694 c 2.76273,0 5.16732,-0.61394 7.21378,-1.84181 2.04647,-1.22788 3.59837,-2.74568 4.65571,-4.55339 1.05734,-1.80771 1.58601,-3.68364 1.58601,-5.62778 0,-2.182894 -0.76742,-4.297573 -2.30227,-6.344038 -1.50074,-2.046465 -3.59837,-3.598368 -6.29288,-4.655708 -2.69451,-1.05734 -6.41226,-1.58601 -11.15323,-1.58601 H 99.041496 Z"
           id="path25871"
           style="fill:url(#linearGradient25889)" /></g><path
         style="opacity:1;fill:none;fill-opacity:1;stroke:url(#linearGradient25893);stroke-width:0.455245;stroke-linecap:square;stroke-linejoin:round;stroke-dasharray:none;stroke-opacity:1;paint-order:stroke fill markers"
         d="M 24.651667,31.72162 H 37.180819 L 37.07553,6.5273118 H 12.122499 V 18.679861"
         id="path25875" /><g
         aria-label="boxo "
         id="g25885"
         style="font-size:28.2853px;font-family:monospace;-inkscape-font-specification:'monospace, Normal';opacity:1;fill:url(#linearGradient25903);stroke-width:1.00436;stroke-linecap:square;stroke-linejoin:round;paint-order:stroke fill markers"
         transform="matrix(0.26037402,0,0,0.26037402,-4.6020215,-6.1215314)"><path
           d="m 82.461489,157.40313 v 7.69283 c 1.399533,-1.82308 3.0891,-2.73462 5.068703,-2.73462 1.694171,0 3.144345,0.6169 4.350522,1.8507 1.206177,1.22459 1.809265,2.73001 1.809265,4.51626 0,1.80466 -0.612296,3.3331 -1.836887,4.58531 -1.215384,1.25221 -2.656351,1.87832 -4.3229,1.87832 -2.02564,0 -3.715208,-0.91154 -5.068703,-2.73461 v 2.27884 h -1.157664 c -0.0037,-1.15846 0.0016,-0.0239 -0.0025,-1.16014 v -14.99894 h -1.560663 c -3.55e-4,-1.15192 0.0048,-0.0231 0,-1.17395 z m 10.068351,11.38041 c 0,-1.46399 -0.501806,-2.70239 -1.505419,-3.71521 -1.003613,-1.02203 -2.177563,-1.53304 -3.521851,-1.53304 -1.344289,0 -2.518239,0.51101 -3.521851,1.53304 -1.003613,1.01282 -1.505419,2.25122 -1.505419,3.71521 0,1.46399 0.501806,2.70699 1.505419,3.72902 1.003612,1.01282 2.177562,1.51923 3.521851,1.51923 1.344288,0 2.518238,-0.50641 3.521851,-1.51923 1.003613,-1.02203 1.505419,-2.26503 1.505419,-3.72902 z"
           id="path25877"
           style="fill:url(#linearGradient25895)" /><path
           d="m 110.29102,168.78354 q 0,2.65175 -1.90594,4.53007 -1.89214,1.87832 -4.57151,1.87832 -2.70699,0 -4.599119,-1.87832 -1.892131,-1.89213 -1.892131,-4.53007 0,-2.65175 1.892131,-4.53007 1.892129,-1.89213 4.599119,-1.89213 2.67937,0 4.57151,1.87832 1.90594,1.87832 1.90594,4.54388 z m -1.17395,0 q 0,-2.18217 -1.56067,-3.71521 -1.54685,-1.53304 -3.75664,-1.53304 -2.20979,0 -3.77045,1.54685 -1.546851,1.53305 -1.546851,3.7014 0,2.15455 1.546851,3.7014 1.56066,1.54685 3.77045,1.54685 2.20979,0 3.75664,-1.53304 1.56067,-1.54685 1.56067,-3.71521 z"
           id="path25879"
           style="fill:url(#linearGradient25897)" /><path
           d="m 121.57037,168.47532 5.31731,5.09632 c 0.34988,0 0.29025,-0.003 1.4113,-9.2e-4 -7.7e-4,0.52589 0.001,0.51824 0.002,1.16246 -0.89457,-1e-4 -0.89588,-0.001 -1.19268,-0.001 h -3.72902 c -0.2844,0 -0.27351,-0.002 -0.59431,0.001 -0.007,-0.89139 -0.006,-0.8916 -0.007,-1.16021 0.32226,-0.002 0.31554,-0.001 0.60097,-0.001 h 1.91975 l -4.51625,-4.3229 -4.48426,4.32728 1.92919,-0.004 c 0.27621,-6.3e-4 0.27636,9.8e-4 0.60507,0.006 0.005,0.45902 0.006,0.46002 7.7e-4,1.15339 -0.33017,-5.9e-4 -0.32936,2.4e-4 -0.60557,5.7e-4 l -3.76634,0.004 c -0.27623,3.2e-4 -0.95535,-0.001 -1.08253,1.3e-4 -5.8e-4,-0.25563 -0.003,-0.86642 6e-5,-1.16229 1.03607,0.001 1.03448,0.003 1.30361,0.002 l 5.31293,-5.1007 -4.71904,-4.52569 c -0.33147,0 -1.24981,0.001 -1.89596,0.002 6.4e-4,-0.73598 -8.8e-4,-0.73588 0.002,-1.17457 0.65562,-0.003 1.42932,-10e-4 1.71475,-10e-4 h 3.16276 c 0.28543,0 0.29088,7.4e-4 0.59388,0.003 0.008,0.58545 0.005,0.58599 0.003,1.17139 -0.30858,0.001 -0.31132,-7.7e-4 -0.59675,-7.7e-4 h -1.38112 l 3.90419,3.76607 3.93618,-3.77045 h -1.38111 c -0.27623,0 -0.27258,0.003 -0.60745,0.003 0.002,-0.42228 0.008,-0.58653 0.0123,-1.17114 0.31607,-9.4e-4 0.314,-0.001 0.59943,-0.001 h 3.16276 c 0.27622,0 0.2793,-0.002 1.79629,0.003 -0.006,0.68473 -0.002,0.67194 -0.006,1.16896 -0.31028,-3.8e-4 -1.65636,-0.002 -1.98783,-0.002 z"
           id="path25881"
           style="fill:url(#linearGradient25899)" /><path
           d="m 144.2389,168.78354 q 0,2.65175 -1.90594,4.53007 -1.89213,1.87832 -4.5715,1.87832 -2.70699,0 -4.59912,-1.87832 -1.89214,-1.89213 -1.89214,-4.53007 0,-2.65175 1.89214,-4.53007 1.89213,-1.89213 4.59912,-1.89213 2.67937,0 4.5715,1.87832 1.90594,1.87832 1.90594,4.54388 z m -1.17395,0 q 0,-2.18217 -1.56066,-3.71521 -1.54685,-1.53304 -3.75664,-1.53304 -2.20979,0 -3.77046,1.54685 -1.54685,1.53305 -1.54685,3.7014 0,2.15455 1.54685,3.7014 1.56067,1.54685 3.77046,1.54685 2.20979,0 3.75664,-1.53304 1.56066,-1.54685 1.56066,-3.71521 z"
           id="path25883"
           style="fill:url(#linearGradient25901)" /></g></g></g></svg>
