<svg width="166" height="225" viewBox="0 0 166 225" fill="none" xmlns="http://www.w3.org/2000/svg">
<path d="M56.0864 122.94V48.9028H48.0442C48.0601 45.5805 48.0169 45.542 48.0442 42.6961H85.6222C93.0714 42.6961 99.121 44.9374 103.771 49.4201C108.468 53.8534 110.817 59.075 110.817 65.0847C110.817 72.6707 106.902 78.8035 99.0735 83.4832C105.289 85.7984 109.844 88.8771 112.738 92.7193C115.633 96.5616 117.08 100.798 117.08 105.428C117.08 109.566 116.131 113.359 114.233 116.807C112.335 120.206 109.417 123.113 105.479 125.526C101.588 127.94 97.3417 129.147 92.7393 129.147H48.0442C48.0431 125.983 47.9823 126.064 48.0442 122.94H56.0864ZM62.0648 81.1187H83.2025C87.7099 81.1187 91.8378 80.2566 95.5861 78.5326C98.4804 77.1533 100.734 75.1583 102.347 72.5475C103.961 69.9367 104.767 67.2767 104.767 64.5674C104.767 60.6759 103.012 57.1046 99.5005 53.8534C95.9894 50.553 91.4108 48.9028 85.7646 48.9028H62.0648V81.1187ZM62.0648 122.94H92.3123C96.1555 122.94 99.5005 122.053 102.347 120.28C105.194 118.507 107.353 116.315 108.824 113.704C110.295 111.093 111.03 108.384 111.03 105.576C111.03 102.424 109.963 99.3694 107.827 96.4138C105.74 93.4582 102.822 91.2169 99.0735 89.6899C95.3252 88.1628 90.1534 87.3993 83.5583 87.3993H62.0648V122.94Z" fill="url(#paint0_linear_2_25)"/>
<path d="M83 172.189H165L164.311 1H1V83.5737" stroke="url(#paint1_linear_2_25)" stroke-width="1.72061" stroke-linecap="square" stroke-linejoin="round"/>
<path d="M32.0633 193.528V207.138C34.4482 203.913 37.3274 202.3 40.7008 202.3C43.5878 202.3 46.059 203.392 48.1144 205.575C50.1698 207.741 51.1975 210.405 51.1975 213.565C51.1975 216.757 50.1541 219.462 48.0673 221.677C45.9962 223.892 43.5407 225 40.7008 225C37.2489 225 34.3698 223.387 32.0633 220.162V224.194H30.0906C30.0843 222.144 30.0933 224.151 30.0863 222.141V195.605H27.4268C27.4262 193.567 27.435 195.565 27.4268 193.528H32.0633ZM49.2206 213.662C49.2206 211.072 48.3655 208.881 46.6552 207.09C44.945 205.281 42.9445 204.377 40.6537 204.377C38.3629 204.377 36.3624 205.281 34.6522 207.09C32.942 208.881 32.0869 211.072 32.0869 213.662C32.0869 216.252 32.942 218.452 34.6522 220.26C36.3624 222.052 38.3629 222.948 40.6537 222.948C42.9445 222.948 44.945 222.052 46.6552 220.26C48.3655 218.452 49.2206 216.252 49.2206 213.662Z" fill="url(#paint2_linear_2_25)"/>
<path d="M79.487 213.662C79.487 216.79 78.4044 219.462 76.2391 221.677C74.0895 223.892 71.4928 225 68.4489 225C65.3736 225 62.7612 223.892 60.6116 221.677C58.4621 219.445 57.3873 216.774 57.3873 213.662C57.3873 210.535 58.4621 207.863 60.6116 205.648C62.7612 203.416 65.3736 202.3 68.4489 202.3C71.4928 202.3 74.0895 203.408 76.2391 205.623C78.4044 207.839 79.487 210.518 79.487 213.662ZM77.4865 213.662C77.4865 211.089 76.6 208.898 74.827 207.09C73.0697 205.281 70.9358 204.377 68.4254 204.377C65.9149 204.377 63.7732 205.29 62.0002 207.114C60.2429 208.922 59.3643 211.105 59.3643 213.662C59.3643 216.204 60.2429 218.386 62.0002 220.211C63.7732 222.035 65.9149 222.947 68.4254 222.947C70.9358 222.947 73.0697 222.043 74.827 220.235C76.6 218.411 77.4865 216.22 77.4865 213.662Z" fill="url(#paint3_linear_2_25)"/>
<path d="M98.7079 213.117L107.769 222.133C108.365 222.133 108.264 222.128 110.174 222.132C110.173 223.062 110.176 223.049 110.177 224.188C108.653 224.188 108.651 224.187 108.145 224.187H101.79C101.306 224.187 101.324 224.183 100.778 224.188C100.766 222.611 100.767 222.611 100.766 222.136C101.315 222.132 101.303 222.134 101.79 222.134H105.061L97.3652 214.486L89.7237 222.142L93.0112 222.135C93.4818 222.134 93.4821 222.136 94.0422 222.145C94.0508 222.957 94.0525 222.959 94.0436 224.186C93.4809 224.185 93.4823 224.186 93.0116 224.187L86.5935 224.194C86.1228 224.194 84.9655 224.192 84.7488 224.194C84.7478 223.742 84.7436 222.661 84.7489 222.138C86.5144 222.14 86.5117 222.143 86.9703 222.141L96.024 213.117L87.9823 205.111C87.4175 205.111 85.8526 205.112 84.7515 205.114C84.7526 203.812 84.75 203.812 84.7549 203.036C85.8721 203.031 87.1906 203.034 87.677 203.034H93.0666C93.5529 203.034 93.5622 203.036 94.0786 203.04C94.0922 204.075 94.0871 204.076 94.0837 205.112C93.5578 205.114 93.5532 205.111 93.0668 205.111H90.7132L97.3663 211.774L104.074 205.103H101.72C101.25 205.103 101.256 205.108 100.685 205.108C100.689 204.361 100.699 204.071 100.706 203.036C101.245 203.035 101.241 203.035 101.728 203.035H107.117C107.588 203.035 107.593 203.031 110.178 203.04C110.168 204.251 110.175 204.229 110.168 205.108C109.639 205.107 107.345 205.104 106.781 205.104L98.7079 213.117Z" fill="url(#paint4_linear_2_25)"/>
<path d="M137.337 213.662C137.337 216.79 136.254 219.462 134.089 221.677C131.939 223.892 129.343 225 126.299 225C123.224 225 120.611 223.892 118.462 221.677C116.312 219.445 115.237 216.774 115.237 213.662C115.237 210.535 116.312 207.863 118.462 205.648C120.611 203.416 123.224 202.3 126.299 202.3C129.343 202.3 131.939 203.408 134.089 205.623C136.254 207.839 137.337 210.518 137.337 213.662ZM135.336 213.662C135.336 211.089 134.45 208.898 132.677 207.09C130.92 205.281 128.786 204.377 126.275 204.377C123.765 204.377 121.623 205.29 119.85 207.114C118.093 208.922 117.214 211.105 117.214 213.662C117.214 216.204 118.093 218.386 119.85 220.211C121.623 222.035 123.765 222.947 126.275 222.947C128.786 222.947 130.92 222.043 132.677 220.235C134.45 218.411 135.336 216.22 135.336 213.662Z" fill="url(#paint5_linear_2_25)"/>
<defs>
<linearGradient id="paint0_linear_2_25" x1="81.5641" y1="42.8845" x2="82.9649" y2="128.274" gradientUnits="userSpaceOnUse">
<stop stop-color="#00FFBE"/>
<stop offset="1" stop-color="#00D2E5"/>
</linearGradient>
<linearGradient id="paint1_linear_2_25" x1="83.3048" y1="-0.678322" x2="84.0341" y2="190.651" gradientUnits="userSpaceOnUse">
<stop stop-color="#00FFC0"/>
<stop offset="1" stop-color="#00D2E5"/>
</linearGradient>
<linearGradient id="paint2_linear_2_25" x1="81.4581" y1="195.095" x2="82.0288" y2="227.368" gradientUnits="userSpaceOnUse">
<stop stop-color="#00FEC0"/>
<stop offset="1" stop-color="#00D2E5"/>
</linearGradient>
<linearGradient id="paint3_linear_2_25" x1="81.4581" y1="195.095" x2="82.0287" y2="227.368" gradientUnits="userSpaceOnUse">
<stop stop-color="#00FEC0"/>
<stop offset="1" stop-color="#00D2E5"/>
</linearGradient>
<linearGradient id="paint4_linear_2_25" x1="81.4581" y1="195.095" x2="82.0287" y2="227.368" gradientUnits="userSpaceOnUse">
<stop stop-color="#00FEC0"/>
<stop offset="1" stop-color="#00D2E5"/>
</linearGradient>
<linearGradient id="paint5_linear_2_25" x1="81.4581" y1="195.095" x2="82.0288" y2="227.368" gradientUnits="userSpaceOnUse">
<stop stop-color="#00FEC0"/>
<stop offset="1" stop-color="#00D2E5"/>
</linearGradient>
</defs>
</svg>
