<?xml version="1.0" encoding="UTF-8"?>
<svg xmlns="http://www.w3.org/2000/svg" xmlns:xlink="http://www.w3.org/1999/xlink" width="75px" height="80px" viewBox="0 0 75 80" version="1.1">
<defs>
<linearGradient id="linear0" gradientUnits="userSpaceOnUse" x1="58.4756" y1="31.4785" x2="59.5153" y2="93.6139" gradientTransform="matrix(0.630252,0,0,0.629921,0,0)">
<stop offset="0" style="stop-color:rgb(0%,100%,74.509804%);stop-opacity:1;"/>
<stop offset="1" style="stop-color:rgb(0%,82.352941%,89.803922%);stop-opacity:1;"/>
</linearGradient>
<linearGradient id="linear1" gradientUnits="userSpaceOnUse" x1="59.7175" y1="-0.221279" x2="60.2588" y2="139.005" gradientTransform="matrix(1,0,0,1,0,0)">
<stop offset="0" style="stop-color:rgb(0%,100%,75.294118%);stop-opacity:1;"/>
<stop offset="1" style="stop-color:rgb(0%,82.352941%,89.803922%);stop-opacity:1;"/>
</linearGradient>
</defs>
<g id="surface1">
<path style=" stroke:none;fill-rule:nonzero;fill:url(#linear0);" d="M 25.398438 56.523438 L 25.398438 22.585938 L 21.78125 22.585938 C 21.789062 21.066406 21.769531 21.046875 21.78125 19.742188 L 38.679688 19.742188 C 42.027344 19.742188 44.75 20.769531 46.839844 22.824219 C 48.953125 24.855469 50.007812 27.25 50.007812 30.003906 C 50.007812 33.480469 48.246094 36.292969 44.726562 38.4375 C 47.523438 39.5 49.570312 40.910156 50.871094 42.671875 C 52.171875 44.433594 52.824219 46.375 52.824219 48.496094 C 52.824219 50.394531 52.398438 52.132812 51.542969 53.714844 C 50.691406 55.273438 49.378906 56.605469 47.605469 57.710938 C 45.859375 58.816406 43.949219 59.371094 41.878906 59.371094 L 21.78125 59.371094 C 21.78125 57.917969 21.753906 57.957031 21.78125 56.523438 Z M 28.085938 37.355469 L 37.589844 37.355469 C 39.617188 37.355469 41.472656 36.960938 43.160156 36.167969 C 44.460938 35.535156 45.472656 34.621094 46.199219 33.425781 C 46.925781 32.230469 47.289062 31.011719 47.289062 29.769531 C 47.289062 27.984375 46.496094 26.347656 44.917969 24.855469 C 43.339844 23.34375 41.28125 22.585938 38.742188 22.585938 L 28.085938 22.585938 Z M 28.085938 56.523438 L 41.6875 56.523438 C 43.414062 56.523438 44.917969 56.117188 46.199219 55.304688 C 47.480469 54.492188 48.449219 53.488281 49.109375 52.292969 C 49.773438 51.09375 50.101562 49.851562 50.101562 48.566406 C 50.101562 47.121094 49.625 45.71875 48.664062 44.367188 C 47.722656 43.011719 46.414062 41.984375 44.726562 41.285156 C 43.042969 40.582031 40.714844 40.234375 37.75 40.234375 L 28.085938 40.234375 Z M 28.085938 56.523438 "/>
<path style="fill:none;stroke-width:1.72061;stroke-linecap:square;stroke-linejoin:round;stroke:url(#linear1);stroke-miterlimit:4;" d="M 59.5 125.57373 L 118.002135 125.57373 L 117.506302 0.998389 L 0.997865 0.998389 L 0.997865 61.087744 " transform="matrix(0.630252,0,0,0.629921,0,0)"/>
</g>
</svg>
