<?xml version="1.0" encoding="UTF-8"?>
<svg xmlns="http://www.w3.org/2000/svg" xmlns:xlink="http://www.w3.org/1999/xlink" width="45px" height="48px" viewBox="0 0 45 48" version="1.1">
<defs>
<linearGradient id="linear0" gradientUnits="userSpaceOnUse" x1="58.4756" y1="31.4785" x2="59.5153" y2="93.6139" gradientTransform="matrix(0.378151,0,0,0.377953,0,0)">
<stop offset="0" style="stop-color:rgb(0%,100%,74.509804%);stop-opacity:1;"/>
<stop offset="1" style="stop-color:rgb(0%,82.352941%,89.803922%);stop-opacity:1;"/>
</linearGradient>
<linearGradient id="linear1" gradientUnits="userSpaceOnUse" x1="59.7175" y1="-0.221279" x2="60.2588" y2="139.005" gradientTransform="matrix(1,0,0,1,0,0)">
<stop offset="0" style="stop-color:rgb(0%,100%,75.294118%);stop-opacity:1;"/>
<stop offset="1" style="stop-color:rgb(0%,82.352941%,89.803922%);stop-opacity:1;"/>
</linearGradient>
</defs>
<g id="surface1">
<path style=" stroke:none;fill-rule:nonzero;fill:url(#linear0);" d="M 15.238281 33.914062 L 15.238281 13.550781 L 13.070312 13.550781 C 13.074219 12.640625 13.0625 12.628906 13.070312 11.84375 L 23.207031 11.84375 C 25.21875 11.84375 26.847656 12.460938 28.105469 13.695312 C 29.371094 14.914062 30.003906 16.351562 30.003906 18.003906 C 30.003906 20.089844 28.949219 21.777344 26.835938 23.0625 C 28.511719 23.699219 29.742188 24.546875 30.523438 25.601562 C 31.304688 26.660156 31.695312 27.824219 31.695312 29.097656 C 31.695312 30.238281 31.4375 31.28125 30.925781 32.226562 C 30.414062 33.164062 29.625 33.960938 28.5625 34.625 C 27.515625 35.289062 26.367188 35.621094 25.128906 35.621094 L 13.070312 35.621094 C 13.070312 34.75 13.054688 34.773438 13.070312 33.914062 Z M 16.851562 22.414062 L 22.554688 22.414062 C 23.769531 22.414062 24.882812 22.175781 25.894531 21.703125 C 26.675781 21.320312 27.285156 20.773438 27.71875 20.054688 C 28.15625 19.335938 28.371094 18.605469 28.371094 17.859375 C 28.371094 16.789062 27.898438 15.808594 26.953125 14.914062 C 26.003906 14.007812 24.769531 13.550781 23.246094 13.550781 L 16.851562 13.550781 Z M 16.851562 33.914062 L 25.011719 33.914062 C 26.050781 33.914062 26.953125 33.671875 27.71875 33.183594 C 28.488281 32.695312 29.070312 32.09375 29.464844 31.375 C 29.863281 30.65625 30.0625 29.910156 30.0625 29.140625 C 30.0625 28.273438 29.773438 27.433594 29.199219 26.621094 C 28.632812 25.804688 27.847656 25.191406 26.835938 24.769531 C 25.824219 24.351562 24.429688 24.140625 22.652344 24.140625 L 16.851562 24.140625 Z M 16.851562 33.914062 "/>
<path style="fill:none;stroke-width:1.72061;stroke-linecap:square;stroke-linejoin:round;stroke:url(#linear1);stroke-miterlimit:4;" d="M 59.5 125.57373 L 117.998003 125.57373 L 117.5125 1.002523 L 1.001997 1.002523 L 1.001997 61.091878 " transform="matrix(0.378151,0,0,0.377953,0,0)"/>
</g>
</svg>
