<?xml version="1.0" encoding="UTF-8"?>
<svg xmlns="http://www.w3.org/2000/svg" xmlns:xlink="http://www.w3.org/1999/xlink" width="30px" height="32px" viewBox="0 0 30 32" version="1.1">
<defs>
<linearGradient id="linear0" gradientUnits="userSpaceOnUse" x1="58.4756" y1="31.4785" x2="59.5153" y2="93.6139" gradientTransform="matrix(0.252101,0,0,0.251969,0,0)">
<stop offset="0" style="stop-color:rgb(0%,100%,74.509804%);stop-opacity:1;"/>
<stop offset="1" style="stop-color:rgb(0%,82.352941%,89.803922%);stop-opacity:1;"/>
</linearGradient>
<linearGradient id="linear1" gradientUnits="userSpaceOnUse" x1="59.7175" y1="-0.221279" x2="60.2588" y2="139.005" >
<stop offset="0" style="stop-color:rgb(0%,100%,75.294118%);stop-opacity:1;"/>
<stop offset="1" style="stop-color:rgb(0%,82.352941%,89.803922%);stop-opacity:1;"/>
</linearGradient>
</defs>
<g id="surface1">
<path style=" stroke:none;fill-rule:nonzero;fill:url(#linear0);" d="M 10.160156 22.609375 L 10.160156 9.035156 L 8.714844 9.035156 C 8.714844 8.425781 8.707031 8.417969 8.714844 7.898438 L 15.472656 7.898438 C 16.8125 7.898438 17.898438 8.308594 18.734375 9.128906 C 19.582031 9.941406 20.003906 10.898438 20.003906 12.003906 C 20.003906 13.394531 19.300781 14.515625 17.890625 15.375 C 19.007812 15.800781 19.828125 16.363281 20.347656 17.070312 C 20.867188 17.773438 21.128906 18.550781 21.128906 19.398438 C 21.128906 20.15625 20.957031 20.851562 20.617188 21.484375 C 20.277344 22.109375 19.75 22.640625 19.042969 23.085938 C 18.34375 23.527344 17.578125 23.746094 16.75 23.746094 L 8.714844 23.746094 C 8.714844 23.167969 8.703125 23.183594 8.714844 22.609375 Z M 11.234375 14.941406 L 15.035156 14.941406 C 15.847656 14.941406 16.589844 14.785156 17.261719 14.46875 C 17.785156 14.214844 18.191406 13.847656 18.480469 13.371094 C 18.769531 12.890625 18.914062 12.402344 18.914062 11.90625 C 18.914062 11.195312 18.597656 10.539062 17.96875 9.941406 C 17.335938 9.335938 16.511719 9.035156 15.496094 9.035156 L 11.234375 9.035156 Z M 11.234375 22.609375 L 16.675781 22.609375 C 17.367188 22.609375 17.96875 22.449219 18.480469 22.121094 C 18.992188 21.796875 19.378906 21.394531 19.644531 20.917969 C 19.910156 20.4375 20.042969 19.941406 20.042969 19.425781 C 20.042969 18.847656 19.847656 18.289062 19.464844 17.746094 C 19.089844 17.203125 18.566406 16.792969 17.890625 16.511719 C 17.214844 16.234375 16.285156 16.09375 15.101562 16.09375 L 11.234375 16.09375 Z M 11.234375 22.609375 "/>
<path style="fill:none;stroke-width:1.72061;stroke-linecap:square;stroke-linejoin:round;stroke:url(#linear1);stroke-miterlimit:4;" d="M 59.5 125.57373 L 117.992839 125.57373 L 117.5125 1.00769 L 1.007161 1.00769 L 1.007161 61.081543 " transform="matrix(0.252101,0,0,0.251969,0,0)"/>
</g>
</svg>
