<?xml version="1.0" encoding="UTF-8"?>
<svg xmlns="http://www.w3.org/2000/svg" xmlns:xlink="http://www.w3.org/1999/xlink" width="150px" height="203px" viewBox="0 0 150 203" version="1.1">
<defs>
<linearGradient id="linear0" gradientUnits="userSpaceOnUse" x1="81.5641" y1="42.8845" x2="82.9649" y2="128.274" gradientTransform="matrix(0.903614,0,0,0.902222,0,0)">
<stop offset="0" style="stop-color:rgb(0%,100%,74.509804%);stop-opacity:1;"/>
<stop offset="1" style="stop-color:rgb(0%,82.352941%,89.803922%);stop-opacity:1;"/>
</linearGradient>
<linearGradient id="linear1" gradientUnits="userSpaceOnUse" x1="83.3048" y1="-0.678322" x2="84.0341" y2="190.651" >
<stop offset="0" style="stop-color:rgb(0%,100%,75.294118%);stop-opacity:1;"/>
<stop offset="1" style="stop-color:rgb(0%,82.352941%,89.803922%);stop-opacity:1;"/>
</linearGradient>
<linearGradient id="linear2" gradientUnits="userSpaceOnUse" x1="81.4581" y1="195.095" x2="82.0288" y2="227.368" gradientTransform="matrix(0.903614,0,0,0.902222,0,0)">
<stop offset="0" style="stop-color:rgb(0%,99.607843%,75.294118%);stop-opacity:1;"/>
<stop offset="1" style="stop-color:rgb(0%,82.352941%,89.803922%);stop-opacity:1;"/>
</linearGradient>
<linearGradient id="linear3" gradientUnits="userSpaceOnUse" x1="81.4581" y1="195.095" x2="82.0287" y2="227.368" gradientTransform="matrix(0.903614,0,0,0.902222,0,0)">
<stop offset="0" style="stop-color:rgb(0%,99.607843%,75.294118%);stop-opacity:1;"/>
<stop offset="1" style="stop-color:rgb(0%,82.352941%,89.803922%);stop-opacity:1;"/>
</linearGradient>
<linearGradient id="linear4" gradientUnits="userSpaceOnUse" x1="81.4581" y1="195.095" x2="82.0287" y2="227.368" gradientTransform="matrix(0.903614,0,0,0.902222,0,0)">
<stop offset="0" style="stop-color:rgb(0%,99.607843%,75.294118%);stop-opacity:1;"/>
<stop offset="1" style="stop-color:rgb(0%,82.352941%,89.803922%);stop-opacity:1;"/>
</linearGradient>
<linearGradient id="linear5" gradientUnits="userSpaceOnUse" x1="81.4581" y1="195.095" x2="82.0288" y2="227.368" gradientTransform="matrix(0.903614,0,0,0.902222,0,0)">
<stop offset="0" style="stop-color:rgb(0%,99.607843%,75.294118%);stop-opacity:1;"/>
<stop offset="1" style="stop-color:rgb(0%,82.352941%,89.803922%);stop-opacity:1;"/>
</linearGradient>
</defs>
<g id="surface1">
<path style=" stroke:none;fill-rule:nonzero;fill:url(#linear0);" d="M 50.679688 110.917969 L 50.679688 44.121094 L 43.414062 44.121094 C 43.429688 41.125 43.390625 41.089844 43.414062 38.519531 L 77.371094 38.519531 C 84.101562 38.519531 89.566406 40.542969 93.769531 44.589844 C 98.011719 48.585938 100.136719 53.296875 100.136719 58.722656 C 100.136719 65.566406 96.597656 71.097656 89.523438 75.320312 C 95.140625 77.410156 99.257812 80.1875 101.871094 83.652344 C 104.488281 87.121094 105.796875 90.941406 105.796875 95.121094 C 105.796875 98.851562 104.9375 102.273438 103.222656 105.386719 C 101.507812 108.453125 98.871094 111.074219 95.3125 113.253906 C 91.796875 115.429688 87.960938 116.519531 83.800781 116.519531 L 43.414062 116.519531 C 43.414062 113.664062 43.359375 113.738281 43.414062 110.917969 Z M 56.082031 73.1875 L 75.183594 73.1875 C 79.257812 73.1875 82.984375 72.410156 86.371094 70.855469 C 88.988281 69.609375 91.023438 67.808594 92.480469 65.453125 C 93.941406 63.097656 94.667969 60.699219 94.667969 58.253906 C 94.667969 54.742188 93.082031 51.519531 89.910156 48.585938 C 86.738281 45.609375 82.601562 44.121094 77.5 44.121094 L 56.082031 44.121094 Z M 56.082031 110.917969 L 83.414062 110.917969 C 86.886719 110.917969 89.910156 110.117188 92.480469 108.519531 C 95.054688 106.917969 97.003906 104.941406 98.335938 102.585938 C 99.664062 100.230469 100.328125 97.785156 100.328125 95.253906 C 100.328125 92.410156 99.363281 89.652344 97.433594 86.988281 C 95.546875 84.320312 92.910156 82.296875 89.523438 80.921875 C 86.136719 79.542969 81.464844 78.855469 75.503906 78.855469 L 56.082031 78.855469 Z M 56.082031 110.917969 "/>
<path style="fill:none;stroke-width:1.72061;stroke-linecap:square;stroke-linejoin:round;stroke:url(#linear1);stroke-miterlimit:4;" d="M 83 172.187692 L 165.001406 172.187692 L 164.30974 1.000135 L 0.998594 1.000135 L 0.998594 83.574026 " transform="matrix(0.903614,0,0,0.902222,0,0)"/>
<path style=" stroke:none;fill-rule:nonzero;fill:url(#linear2);" d="M 28.972656 174.605469 L 28.972656 186.882812 C 31.128906 183.976562 33.730469 182.519531 36.777344 182.519531 C 39.386719 182.519531 41.621094 183.503906 43.476562 185.472656 C 45.335938 187.429688 46.261719 189.832031 46.261719 192.683594 C 46.261719 195.5625 45.320312 198.003906 43.433594 200 C 41.5625 202 39.34375 203 36.777344 203 C 33.660156 203 31.058594 201.542969 28.972656 198.636719 L 28.972656 202.273438 L 27.191406 202.273438 C 27.183594 200.421875 27.191406 202.234375 27.1875 200.421875 L 27.1875 176.480469 L 24.785156 176.480469 C 24.78125 174.640625 24.789062 176.441406 24.785156 174.605469 Z M 44.476562 192.769531 C 44.476562 190.433594 43.703125 188.457031 42.160156 186.839844 C 40.613281 185.210938 38.804688 184.394531 36.734375 184.394531 C 34.664062 184.394531 32.859375 185.210938 31.3125 186.839844 C 29.765625 188.457031 28.996094 190.433594 28.996094 192.769531 C 28.996094 195.105469 29.765625 197.09375 31.3125 198.722656 C 32.859375 200.339844 34.664062 201.148438 36.734375 201.148438 C 38.804688 201.148438 40.613281 200.339844 42.160156 198.722656 C 43.703125 197.09375 44.476562 195.105469 44.476562 192.769531 Z M 44.476562 192.769531 "/>
<path style=" stroke:none;fill-rule:nonzero;fill:url(#linear3);" d="M 71.824219 192.769531 C 71.824219 195.59375 70.847656 198.003906 68.890625 200 C 66.949219 202 64.601562 203 61.851562 203 C 59.074219 203 56.710938 202 54.769531 200 C 52.828125 197.988281 51.855469 195.578125 51.855469 192.769531 C 51.855469 189.949219 52.828125 187.539062 54.769531 185.539062 C 56.710938 183.527344 59.074219 182.519531 61.851562 182.519531 C 64.601562 182.519531 66.949219 183.519531 68.890625 185.519531 C 70.847656 187.515625 71.824219 189.933594 71.824219 192.769531 Z M 70.019531 192.769531 C 70.019531 190.449219 69.21875 188.472656 67.613281 186.839844 C 66.027344 185.210938 64.097656 184.394531 61.832031 184.394531 C 59.5625 184.394531 57.625 185.21875 56.023438 186.863281 C 54.4375 188.492188 53.640625 190.464844 53.640625 192.769531 C 53.640625 195.0625 54.4375 197.03125 56.023438 198.679688 C 57.625 200.324219 59.5625 201.148438 61.832031 201.148438 C 64.097656 201.148438 66.027344 200.332031 67.613281 198.699219 C 69.21875 197.054688 70.019531 195.078125 70.019531 192.769531 Z M 70.019531 192.769531 "/>
<path style=" stroke:none;fill-rule:nonzero;fill:url(#linear4);" d="M 89.195312 192.277344 L 97.382812 200.414062 C 97.921875 200.414062 97.828125 200.410156 99.554688 200.414062 C 99.554688 201.25 99.554688 201.238281 99.558594 202.265625 C 98.179688 202.265625 98.179688 202.265625 97.722656 202.265625 L 91.980469 202.265625 C 91.542969 202.265625 91.558594 202.261719 91.066406 202.265625 C 91.054688 200.84375 91.054688 200.84375 91.054688 200.417969 C 91.550781 200.414062 91.539062 200.414062 91.980469 200.414062 L 94.933594 200.414062 L 87.980469 193.515625 L 81.074219 200.421875 L 84.046875 200.414062 C 84.472656 200.414062 84.472656 200.417969 84.976562 200.425781 C 84.984375 201.15625 84.988281 201.160156 84.980469 202.265625 C 84.46875 202.265625 84.472656 202.265625 84.046875 202.265625 L 78.246094 202.273438 C 77.820312 202.273438 76.777344 202.269531 76.582031 202.273438 C 76.578125 201.863281 76.574219 200.890625 76.582031 200.417969 C 78.175781 200.417969 78.171875 200.421875 78.585938 200.421875 L 86.769531 192.277344 L 79.503906 185.054688 C 78.992188 185.054688 77.578125 185.054688 76.582031 185.058594 C 76.582031 183.882812 76.582031 183.882812 76.585938 183.183594 C 77.59375 183.179688 78.785156 183.183594 79.226562 183.183594 L 84.097656 183.183594 C 84.535156 183.183594 84.542969 183.183594 85.011719 183.1875 C 85.023438 184.121094 85.019531 184.121094 85.015625 185.054688 C 84.539062 185.058594 84.535156 185.054688 84.097656 185.054688 L 81.96875 185.054688 L 87.980469 191.066406 L 94.042969 185.046875 L 91.914062 185.046875 C 91.492188 185.046875 91.496094 185.054688 90.980469 185.054688 C 90.984375 184.378906 90.992188 184.117188 91 183.183594 C 91.488281 183.183594 91.484375 183.183594 91.921875 183.183594 L 96.792969 183.183594 C 97.21875 183.183594 97.222656 183.179688 99.558594 183.1875 C 99.550781 184.28125 99.554688 184.261719 99.550781 185.054688 C 99.070312 185.050781 97 185.050781 96.488281 185.050781 Z M 89.195312 192.277344 "/>
<path style=" stroke:none;fill-rule:nonzero;fill:url(#linear5);" d="M 124.101562 192.769531 C 124.101562 195.59375 123.121094 198.003906 121.164062 200 C 119.222656 202 116.875 203 114.125 203 C 111.347656 203 108.984375 202 107.042969 200 C 105.101562 197.988281 104.128906 195.578125 104.128906 192.769531 C 104.128906 189.949219 105.101562 187.539062 107.042969 185.539062 C 108.984375 183.527344 111.347656 182.519531 114.125 182.519531 C 116.875 182.519531 119.222656 183.519531 121.164062 185.519531 C 123.121094 187.515625 124.101562 189.933594 124.101562 192.769531 Z M 122.292969 192.769531 C 122.292969 190.449219 121.492188 188.472656 119.890625 186.839844 C 118.300781 185.210938 116.371094 184.394531 114.105469 184.394531 C 111.835938 184.394531 109.898438 185.21875 108.296875 186.863281 C 106.710938 188.492188 105.917969 190.464844 105.917969 192.769531 C 105.917969 195.0625 106.710938 197.03125 108.296875 198.679688 C 109.898438 200.324219 111.835938 201.148438 114.105469 201.148438 C 116.371094 201.148438 118.300781 200.332031 119.890625 198.699219 C 121.492188 197.054688 122.292969 195.078125 122.292969 192.769531 Z M 122.292969 192.769531 "/>
</g>
</svg>
