<?xml version="1.0" encoding="UTF-8"?>
<svg xmlns="http://www.w3.org/2000/svg" xmlns:xlink="http://www.w3.org/1999/xlink" width="23px" height="25px" viewBox="0 0 23 24" version="1.1">
<defs>
<linearGradient id="linear0" gradientUnits="userSpaceOnUse" x1="58.4756" y1="31.4785" x2="59.5153" y2="93.6139" gradientTransform="matrix(0.193277,0,0,0.188976,0,0)">
<stop offset="0" style="stop-color:rgb(0%,100%,74.509804%);stop-opacity:1;"/>
<stop offset="1" style="stop-color:rgb(0%,82.352941%,89.803922%);stop-opacity:1;"/>
</linearGradient>
<linearGradient id="linear1" gradientUnits="userSpaceOnUse" x1="59.7175" y1="-0.221279" x2="60.2588" y2="139.005" >
<stop offset="0" style="stop-color:rgb(0%,100%,75.294118%);stop-opacity:1;"/>
<stop offset="1" style="stop-color:rgb(0%,82.352941%,89.803922%);stop-opacity:1;"/>
</linearGradient>
</defs>
<g id="surface1">
<path style=" stroke:none;fill-rule:nonzero;fill:url(#linear0);" d="M 7.789062 16.957031 L 7.789062 6.777344 L 6.679688 6.777344 C 6.683594 6.320312 6.675781 6.3125 6.679688 5.921875 L 11.863281 5.921875 C 12.890625 5.921875 13.722656 6.230469 14.363281 6.847656 C 15.011719 7.457031 15.335938 8.175781 15.335938 9 C 15.335938 10.042969 14.796875 10.886719 13.714844 11.53125 C 14.574219 11.851562 15.203125 12.273438 15.601562 12.800781 C 16 13.328125 16.199219 13.914062 16.199219 14.550781 C 16.199219 15.117188 16.066406 15.640625 15.804688 16.113281 C 15.542969 16.582031 15.140625 16.980469 14.597656 17.3125 C 14.0625 17.644531 13.476562 17.8125 12.84375 17.8125 L 6.679688 17.8125 C 6.679688 17.375 6.671875 17.386719 6.679688 16.957031 Z M 8.613281 11.207031 L 11.527344 11.207031 C 12.148438 11.207031 12.71875 11.085938 13.234375 10.851562 C 13.632812 10.660156 13.945312 10.386719 14.167969 10.027344 C 14.390625 9.667969 14.5 9.304688 14.5 8.929688 C 14.5 8.394531 14.257812 7.902344 13.773438 7.457031 C 13.292969 7.003906 12.660156 6.777344 11.882812 6.777344 L 8.613281 6.777344 Z M 8.613281 16.957031 L 12.785156 16.957031 C 13.3125 16.957031 13.773438 16.835938 14.167969 16.589844 C 14.558594 16.347656 14.859375 16.046875 15.0625 15.6875 C 15.261719 15.328125 15.363281 14.957031 15.363281 14.570312 C 15.363281 14.136719 15.21875 13.714844 14.921875 13.308594 C 14.636719 12.902344 14.234375 12.59375 13.714844 12.386719 C 13.199219 12.175781 12.488281 12.070312 11.578125 12.070312 L 8.613281 12.070312 Z M 8.613281 16.957031 "/>
<path style="fill:none;stroke-width:1.72061;stroke-linecap:square;stroke-linejoin:round;stroke:url(#linear1);stroke-miterlimit:4;" d="M 59.5 125.57373 L 118.009681 125.57373 L 117.504416 0.992188 L 0.990319 0.992188 L 0.990319 61.081543 " transform="matrix(0.193277,0,0,0.188976,0,0)"/>
</g>
</svg>
