<?xml version="1.0" encoding="UTF-8"?>
<svg xmlns="http://www.w3.org/2000/svg" xmlns:xlink="http://www.w3.org/1999/xlink" width="50px" height="53px" viewBox="0 0 50 53" version="1.1">
<defs>
<linearGradient id="linear0" gradientUnits="userSpaceOnUse" x1="58.4756" y1="31.4785" x2="59.5153" y2="93.6139" gradientTransform="matrix(0.420168,0,0,0.417323,0,0)">
<stop offset="0" style="stop-color:rgb(0%,100%,74.509804%);stop-opacity:1;"/>
<stop offset="1" style="stop-color:rgb(0%,82.352941%,89.803922%);stop-opacity:1;"/>
</linearGradient>
<linearGradient id="linear1" gradientUnits="userSpaceOnUse" x1="59.7175" y1="-0.221279" x2="60.2588" y2="139.005" >
<stop offset="0" style="stop-color:rgb(0%,100%,75.294118%);stop-opacity:1;"/>
<stop offset="1" style="stop-color:rgb(0%,82.352941%,89.803922%);stop-opacity:1;"/>
</linearGradient>
</defs>
<g id="surface1">
<path style=" stroke:none;fill-rule:nonzero;fill:url(#linear0);" d="M 16.933594 37.449219 L 16.933594 14.964844 L 14.523438 14.964844 C 14.527344 13.957031 14.511719 13.945312 14.523438 13.078125 L 25.785156 13.078125 C 28.019531 13.078125 29.832031 13.761719 31.226562 15.121094 C 32.632812 16.46875 33.339844 18.054688 33.339844 19.878906 C 33.339844 22.183594 32.164062 24.042969 29.816406 25.464844 C 31.679688 26.167969 33.046875 27.105469 33.914062 28.269531 C 34.78125 29.4375 35.214844 30.722656 35.214844 32.128906 C 35.214844 33.386719 34.929688 34.539062 34.363281 35.585938 C 33.792969 36.617188 32.917969 37.5 31.738281 38.234375 C 30.570312 38.964844 29.300781 39.332031 27.917969 39.332031 L 14.523438 39.332031 C 14.523438 38.371094 14.503906 38.398438 14.523438 37.449219 Z M 18.722656 24.746094 L 25.0625 24.746094 C 26.410156 24.746094 27.648438 24.484375 28.773438 23.960938 C 29.640625 23.542969 30.316406 22.9375 30.800781 22.144531 C 31.28125 21.351562 31.523438 20.542969 31.523438 19.722656 C 31.523438 18.539062 31 17.453125 29.945312 16.46875 C 28.894531 15.464844 27.519531 14.964844 25.828125 14.964844 L 18.722656 14.964844 Z M 18.722656 37.449219 L 27.792969 37.449219 C 28.945312 37.449219 29.945312 37.179688 30.800781 36.640625 C 31.652344 36.101562 32.300781 35.4375 32.742188 34.644531 C 33.183594 33.851562 33.402344 33.027344 33.402344 32.175781 C 33.402344 31.21875 33.082031 30.289062 32.441406 29.390625 C 31.816406 28.496094 30.941406 27.8125 29.816406 27.351562 C 28.695312 26.886719 27.144531 26.65625 25.167969 26.65625 L 18.722656 26.65625 Z M 18.722656 37.449219 "/>
<path style="fill:none;stroke-width:1.72061;stroke-linecap:square;stroke-linejoin:round;stroke:url(#linear1);stroke-miterlimit:4;" d="M 59.5 125.56788 L 117.995937 125.56788 L 117.5125 1.001548 L 1.004062 1.001548 L 1.004062 61.085053 " transform="matrix(0.420168,0,0,0.417323,0,0)"/>
</g>
</svg>
