<?xml version="1.0" encoding="UTF-8"?>
<svg xmlns="http://www.w3.org/2000/svg" xmlns:xlink="http://www.w3.org/1999/xlink" width="55px" height="59px" viewBox="0 0 55 58" version="1.1">
<defs>
<linearGradient id="linear0" gradientUnits="userSpaceOnUse" x1="58.4756" y1="31.4785" x2="59.5153" y2="93.6139" gradientTransform="matrix(0.462185,0,0,0.456693,0,0)">
<stop offset="0" style="stop-color:rgb(0%,100%,74.509804%);stop-opacity:1;"/>
<stop offset="1" style="stop-color:rgb(0%,82.352941%,89.803922%);stop-opacity:1;"/>
</linearGradient>
<linearGradient id="linear1" gradientUnits="userSpaceOnUse" x1="59.7175" y1="-0.221279" x2="60.2588" y2="139.005" >
<stop offset="0" style="stop-color:rgb(0%,100%,75.294118%);stop-opacity:1;"/>
<stop offset="1" style="stop-color:rgb(0%,82.352941%,89.803922%);stop-opacity:1;"/>
</linearGradient>
</defs>
<g id="surface1">
<path style=" stroke:none;fill-rule:nonzero;fill:url(#linear0);" d="M 18.625 40.980469 L 18.625 16.375 L 15.972656 16.375 C 15.980469 15.273438 15.964844 15.257812 15.972656 14.3125 L 28.363281 14.3125 C 30.820312 14.3125 32.816406 15.058594 34.347656 16.546875 C 35.898438 18.019531 36.671875 19.757812 36.671875 21.753906 C 36.671875 24.273438 35.382812 26.3125 32.800781 27.867188 C 34.847656 28.636719 36.351562 29.660156 37.304688 30.9375 C 38.261719 32.214844 38.738281 33.621094 38.738281 35.160156 C 38.738281 36.535156 38.425781 37.796875 37.796875 38.941406 C 37.171875 40.070312 36.210938 41.039062 34.910156 41.839844 C 33.628906 42.640625 32.230469 43.042969 30.710938 43.042969 L 15.972656 43.042969 C 15.972656 41.992188 15.953125 42.019531 15.972656 40.980469 Z M 20.597656 27.082031 L 27.566406 27.082031 C 29.054688 27.082031 30.414062 26.796875 31.648438 26.222656 C 32.605469 25.765625 33.347656 25.101562 33.878906 24.234375 C 34.410156 23.367188 34.675781 22.480469 34.675781 21.582031 C 34.675781 20.289062 34.097656 19.101562 32.941406 18.019531 C 31.78125 16.925781 30.273438 16.375 28.410156 16.375 L 20.597656 16.375 Z M 20.597656 40.980469 L 30.570312 40.980469 C 31.835938 40.980469 32.941406 40.6875 33.878906 40.097656 C 34.816406 39.507812 35.53125 38.777344 36.015625 37.910156 C 36.5 37.042969 36.742188 36.144531 36.742188 35.210938 C 36.742188 34.164062 36.390625 33.148438 35.6875 32.164062 C 34.996094 31.183594 34.035156 30.4375 32.800781 29.929688 C 31.5625 29.421875 29.859375 29.167969 27.683594 29.167969 L 20.597656 29.167969 Z M 20.597656 40.980469 "/>
<path style="fill:none;stroke-width:1.72061;stroke-linecap:square;stroke-linejoin:round;stroke:url(#linear1);stroke-miterlimit:4;" d="M 59.5 125.571592 L 118.002699 125.571592 L 117.504048 1.000741 L 0.997301 1.000741 L 0.997301 61.087958 " transform="matrix(0.462185,0,0,0.456693,0,0)"/>
</g>
</svg>
