<?xml version="1.0" encoding="UTF-8"?>
<svg xmlns="http://www.w3.org/2000/svg" xmlns:xlink="http://www.w3.org/1999/xlink" width="52px" height="55px" viewBox="0 0 52 55" version="1.1">
<defs>
<linearGradient id="linear0" gradientUnits="userSpaceOnUse" x1="58.4756" y1="31.4785" x2="59.5153" y2="93.6139" gradientTransform="matrix(0.436975,0,0,0.433071,0,0)">
<stop offset="0" style="stop-color:rgb(0%,100%,74.509804%);stop-opacity:1;"/>
<stop offset="1" style="stop-color:rgb(0%,82.352941%,89.803922%);stop-opacity:1;"/>
</linearGradient>
<linearGradient id="linear1" gradientUnits="userSpaceOnUse" x1="59.7175" y1="-0.221279" x2="60.2588" y2="139.005" >
<stop offset="0" style="stop-color:rgb(0%,100%,75.294118%);stop-opacity:1;"/>
<stop offset="1" style="stop-color:rgb(0%,82.352941%,89.803922%);stop-opacity:1;"/>
</linearGradient>
</defs>
<g id="surface1">
<path style=" stroke:none;fill-rule:nonzero;fill:url(#linear0);" d="M 17.609375 38.859375 L 17.609375 15.527344 L 15.101562 15.527344 C 15.109375 14.480469 15.09375 14.46875 15.101562 13.574219 L 26.816406 13.574219 C 29.140625 13.574219 31.027344 14.28125 32.476562 15.691406 C 33.941406 17.089844 34.671875 18.734375 34.671875 20.628906 C 34.671875 23.019531 33.453125 24.953125 31.011719 26.425781 C 32.949219 27.15625 34.367188 28.125 35.269531 29.335938 C 36.171875 30.546875 36.625 31.882812 36.625 33.34375 C 36.625 34.644531 36.328125 35.839844 35.738281 36.929688 C 35.144531 38 34.234375 38.914062 33.007812 39.675781 C 31.792969 40.4375 30.472656 40.816406 29.035156 40.816406 L 15.101562 40.816406 C 15.101562 39.820312 15.082031 39.84375 15.101562 38.859375 Z M 19.472656 25.679688 L 26.0625 25.679688 C 27.46875 25.679688 28.753906 25.410156 29.921875 24.867188 C 30.824219 24.433594 31.527344 23.804688 32.03125 22.980469 C 32.535156 22.15625 32.785156 21.320312 32.785156 20.464844 C 32.785156 19.238281 32.238281 18.113281 31.144531 17.089844 C 30.050781 16.050781 28.621094 15.527344 26.863281 15.527344 L 19.472656 15.527344 Z M 19.472656 38.859375 L 28.902344 38.859375 C 30.101562 38.859375 31.144531 38.582031 32.03125 38.023438 C 32.917969 37.464844 33.59375 36.773438 34.050781 35.949219 C 34.507812 35.128906 34.738281 34.273438 34.738281 33.390625 C 34.738281 32.394531 34.40625 31.433594 33.738281 30.5 C 33.089844 29.570312 32.179688 28.863281 31.011719 28.382812 C 29.84375 27.902344 28.230469 27.660156 26.175781 27.660156 L 19.472656 27.660156 Z M 19.472656 38.859375 "/>
<path style="fill:none;stroke-width:1.72061;stroke-linecap:square;stroke-linejoin:round;stroke:url(#linear1);stroke-miterlimit:4;" d="M 59.5 125.574858 L 117.998798 125.574858 L 117.507136 1.001207 L 1.001202 1.001207 L 1.001202 61.08267 " transform="matrix(0.436975,0,0,0.433071,0,0)"/>
</g>
</svg>
