<?xml version="1.0" encoding="UTF-8"?>
<svg xmlns="http://www.w3.org/2000/svg" xmlns:xlink="http://www.w3.org/1999/xlink" width="38px" height="50px" viewBox="0 0 38 49" version="1.1">
<defs>
<linearGradient id="linear0" gradientUnits="userSpaceOnUse" x1="101.59712" y1="60.27198" x2="102.47594" y2="115.88922" gradientTransform="matrix(0.338049,0,0,0.334775,-15.588056,-10.707546)">
<stop offset="0" style="stop-color:rgb(0%,100%,74.509804%);stop-opacity:1;"/>
<stop offset="1" style="stop-color:rgb(0%,82.352941%,89.803922%);stop-opacity:1;"/>
</linearGradient>
<linearGradient id="linear1" gradientUnits="userSpaceOnUse" x1="100.75285" y1="30.923187" x2="101.24898" y2="157.7305" gradientTransform="matrix(0.236633,0,0,0.222056,0.85679,-0.586375)">
<stop offset="0" style="stop-color:rgb(0%,100%,75.294118%);stop-opacity:1;"/>
<stop offset="1" style="stop-color:rgb(0%,82.352941%,89.803922%);stop-opacity:1;"/>
</linearGradient>
<linearGradient id="linear2" gradientUnits="userSpaceOnUse" x1="99.806053" y1="159.34697" x2="100.11674" y2="177.58942" gradientTransform="matrix(0.389536,0,0,0.385764,-20.145547,-18.811249)">
<stop offset="0" style="stop-color:rgb(0%,99.607843%,75.294118%);stop-opacity:1;"/>
<stop offset="1" style="stop-color:rgb(0%,82.352941%,89.803922%);stop-opacity:1;"/>
</linearGradient>
<linearGradient id="linear3" gradientUnits="userSpaceOnUse" x1="99.806053" y1="159.34697" x2="100.11674" y2="177.58942" gradientTransform="matrix(0.389536,0,0,0.385764,-20.145547,-18.811249)">
<stop offset="0" style="stop-color:rgb(0%,99.607843%,75.294118%);stop-opacity:1;"/>
<stop offset="1" style="stop-color:rgb(0%,82.352941%,89.803922%);stop-opacity:1;"/>
</linearGradient>
<linearGradient id="linear4" gradientUnits="userSpaceOnUse" x1="99.806053" y1="159.34697" x2="100.11674" y2="177.58942" gradientTransform="matrix(0.389536,0,0,0.385764,-20.145547,-18.811249)">
<stop offset="0" style="stop-color:rgb(0%,99.607843%,75.294118%);stop-opacity:1;"/>
<stop offset="1" style="stop-color:rgb(0%,82.352941%,89.803922%);stop-opacity:1;"/>
</linearGradient>
<linearGradient id="linear5" gradientUnits="userSpaceOnUse" x1="99.806053" y1="159.34697" x2="100.11674" y2="177.58942" gradientTransform="matrix(0.389536,0,0,0.385764,-20.145547,-18.811249)">
<stop offset="0" style="stop-color:rgb(0%,99.607843%,75.294118%);stop-opacity:1;"/>
<stop offset="1" style="stop-color:rgb(0%,82.352941%,89.803922%);stop-opacity:1;"/>
</linearGradient>
</defs>
<g id="surface1">
<path style=" stroke:none;fill-rule:nonzero;fill:url(#linear0);" d="M 12.933594 26.925781 L 12.933594 10.78125 L 11.09375 10.78125 C 11.097656 10.058594 11.089844 10.050781 11.09375 9.429688 L 19.683594 9.429688 C 21.386719 9.429688 22.769531 9.917969 23.832031 10.894531 C 24.90625 11.863281 25.445312 13 25.445312 14.3125 C 25.445312 15.964844 24.546875 17.300781 22.757812 18.324219 C 24.179688 18.828125 25.222656 19.5 25.882812 20.335938 C 26.542969 21.175781 26.875 22.097656 26.875 23.109375 C 26.875 24.007812 26.660156 24.835938 26.222656 25.589844 C 25.789062 26.328125 25.125 26.964844 24.222656 27.488281 C 23.335938 28.015625 22.363281 28.277344 21.3125 28.277344 L 11.09375 28.277344 C 11.09375 27.589844 11.082031 27.605469 11.09375 26.925781 Z M 14.300781 17.808594 L 19.132812 17.808594 C 20.160156 17.808594 21.105469 17.617188 21.960938 17.242188 C 22.625 16.941406 23.140625 16.507812 23.507812 15.9375 C 23.875 15.367188 24.0625 14.789062 24.0625 14.199219 C 24.0625 13.347656 23.660156 12.570312 22.855469 11.863281 C 22.054688 11.140625 21.007812 10.78125 19.71875 10.78125 L 14.300781 10.78125 Z M 14.300781 26.925781 L 21.214844 26.925781 C 22.09375 26.925781 22.855469 26.734375 23.507812 26.347656 C 24.160156 25.960938 24.652344 25.480469 24.988281 24.910156 C 25.324219 24.34375 25.492188 23.75 25.492188 23.140625 C 25.492188 22.453125 25.25 21.785156 24.761719 21.140625 C 24.28125 20.496094 23.617188 20.007812 22.757812 19.675781 C 21.902344 19.34375 20.71875 19.175781 19.210938 19.175781 L 14.300781 19.175781 Z M 14.300781 26.925781 "/>
<path style="fill:none;stroke-width:0.455245;stroke-linecap:square;stroke-linejoin:round;stroke:url(#linear1);stroke-miterlimit:4;" d="M 24.652316 31.72134 L 37.179989 31.72134 L 37.075548 6.526443 L 12.122033 6.526443 L 12.122033 18.680951 " transform="matrix(1.496063,0,0,1.481575,-17.795481,-9.333476)"/>
<path style=" stroke:none;fill-rule:nonzero;fill:url(#linear2);" d="M 7.441406 42.316406 L 7.441406 45.285156 C 7.988281 44.582031 8.644531 44.230469 9.414062 44.230469 C 10.074219 44.230469 10.640625 44.46875 11.109375 44.945312 C 11.582031 45.417969 11.816406 45.996094 11.816406 46.6875 C 11.816406 47.382812 11.578125 47.972656 11.101562 48.457031 C 10.625 48.9375 10.066406 49.179688 9.414062 49.179688 C 8.625 49.179688 7.96875 48.828125 7.441406 48.125 L 7.441406 49.003906 L 6.992188 49.003906 C 6.988281 48.558594 6.992188 48.996094 6.988281 48.554688 L 6.988281 42.769531 L 6.382812 42.769531 C 6.382812 42.324219 6.382812 42.761719 6.382812 42.316406 Z M 11.363281 46.707031 C 11.363281 46.144531 11.167969 45.664062 10.777344 45.273438 C 10.386719 44.878906 9.929688 44.683594 9.40625 44.683594 C 8.882812 44.683594 8.425781 44.878906 8.03125 45.273438 C 7.640625 45.664062 7.445312 46.144531 7.445312 46.707031 C 7.445312 47.273438 7.640625 47.75 8.03125 48.144531 C 8.425781 48.535156 8.882812 48.730469 9.40625 48.730469 C 9.929688 48.730469 10.386719 48.535156 10.777344 48.144531 C 11.167969 47.75 11.363281 47.273438 11.363281 46.707031 Z M 11.363281 46.707031 "/>
<path style=" stroke:none;fill-rule:nonzero;fill:url(#linear3);" d="M 18.28125 46.707031 C 18.28125 47.390625 18.035156 47.972656 17.539062 48.457031 C 17.046875 48.9375 16.453125 49.179688 15.757812 49.179688 C 15.054688 49.179688 14.457031 48.9375 13.96875 48.457031 C 13.476562 47.96875 13.230469 47.386719 13.230469 46.707031 C 13.230469 46.027344 13.476562 45.441406 13.96875 44.960938 C 14.457031 44.472656 15.054688 44.230469 15.757812 44.230469 C 16.453125 44.230469 17.046875 44.472656 17.539062 44.953125 C 18.035156 45.4375 18.28125 46.023438 18.28125 46.707031 Z M 17.824219 46.707031 C 17.824219 46.144531 17.621094 45.667969 17.214844 45.273438 C 16.816406 44.878906 16.328125 44.683594 15.753906 44.683594 C 15.179688 44.683594 14.691406 44.882812 14.285156 45.28125 C 13.882812 45.675781 13.683594 46.148438 13.683594 46.707031 C 13.683594 47.261719 13.882812 47.738281 14.285156 48.136719 C 14.691406 48.535156 15.179688 48.730469 15.753906 48.730469 C 16.328125 48.730469 16.816406 48.535156 17.214844 48.140625 C 17.621094 47.742188 17.824219 47.265625 17.824219 46.707031 Z M 17.824219 46.707031 "/>
<path style=" stroke:none;fill-rule:nonzero;fill:url(#linear4);" d="M 22.675781 46.589844 L 24.746094 48.554688 C 24.882812 48.554688 24.859375 48.554688 25.296875 48.554688 C 25.296875 48.757812 25.296875 48.753906 25.296875 49.003906 C 24.949219 49.003906 24.949219 49.003906 24.832031 49.003906 L 23.378906 49.003906 C 23.269531 49.003906 23.273438 49 23.148438 49.003906 C 23.144531 48.660156 23.144531 48.660156 23.144531 48.554688 C 23.273438 48.554688 23.269531 48.554688 23.378906 48.554688 L 24.128906 48.554688 L 22.367188 46.886719 L 20.621094 48.554688 L 21.375 48.554688 C 21.480469 48.554688 21.480469 48.554688 21.609375 48.558594 C 21.609375 48.734375 21.613281 48.734375 21.609375 49.003906 C 21.480469 49 21.480469 49.003906 21.375 49.003906 L 19.90625 49.003906 C 19.796875 49.003906 19.535156 49.003906 19.484375 49.003906 C 19.484375 48.90625 19.484375 48.667969 19.484375 48.554688 C 19.886719 48.554688 19.886719 48.558594 19.992188 48.554688 L 22.0625 46.589844 L 20.222656 44.84375 C 20.09375 44.84375 19.738281 44.84375 19.484375 44.84375 C 19.484375 44.558594 19.484375 44.558594 19.484375 44.390625 C 19.742188 44.390625 20.042969 44.390625 20.152344 44.390625 L 21.386719 44.390625 C 21.496094 44.390625 21.5 44.390625 21.617188 44.390625 C 21.621094 44.617188 21.621094 44.617188 21.617188 44.84375 C 21.5 44.84375 21.496094 44.84375 21.386719 44.84375 L 20.847656 44.84375 L 22.367188 46.296875 L 23.902344 44.839844 L 23.363281 44.839844 C 23.257812 44.839844 23.257812 44.84375 23.128906 44.84375 C 23.128906 44.679688 23.128906 44.617188 23.132812 44.390625 C 23.253906 44.390625 23.253906 44.390625 23.367188 44.390625 L 24.597656 44.390625 C 24.707031 44.390625 24.707031 44.390625 25.296875 44.390625 C 25.296875 44.65625 25.296875 44.652344 25.296875 44.84375 C 25.175781 44.84375 24.648438 44.839844 24.519531 44.839844 Z M 22.675781 46.589844 "/>
<path style=" stroke:none;fill-rule:nonzero;fill:url(#linear5);" d="M 31.503906 46.707031 C 31.503906 47.390625 31.257812 47.972656 30.761719 48.457031 C 30.273438 48.9375 29.679688 49.179688 28.984375 49.179688 C 28.28125 49.179688 27.683594 48.9375 27.191406 48.457031 C 26.699219 47.96875 26.453125 47.386719 26.453125 46.707031 C 26.453125 46.027344 26.699219 45.441406 27.191406 44.960938 C 27.683594 44.472656 28.28125 44.230469 28.984375 44.230469 C 29.679688 44.230469 30.273438 44.472656 30.761719 44.953125 C 31.257812 45.4375 31.503906 46.023438 31.503906 46.707031 Z M 31.046875 46.707031 C 31.046875 46.144531 30.847656 45.667969 30.441406 45.273438 C 30.039062 44.878906 29.550781 44.683594 28.976562 44.683594 C 28.402344 44.683594 27.914062 44.882812 27.507812 45.28125 C 27.105469 45.675781 26.90625 46.148438 26.90625 46.707031 C 26.90625 47.261719 27.105469 47.738281 27.507812 48.136719 C 27.914062 48.535156 28.402344 48.730469 28.976562 48.730469 C 29.550781 48.730469 30.039062 48.535156 30.441406 48.140625 C 30.847656 47.742188 31.046875 47.265625 31.046875 46.707031 Z M 31.046875 46.707031 "/>
</g>
</svg>
