<?xml version="1.0" encoding="UTF-8"?>
<svg xmlns="http://www.w3.org/2000/svg" xmlns:xlink="http://www.w3.org/1999/xlink" width="58px" height="62px" viewBox="0 0 58 61" version="1.1">
<defs>
<linearGradient id="linear0" gradientUnits="userSpaceOnUse" x1="58.4756" y1="31.4785" x2="59.5153" y2="93.6139" gradientTransform="matrix(0.487395,0,0,0.480315,0,0)">
<stop offset="0" style="stop-color:rgb(0%,100%,74.509804%);stop-opacity:1;"/>
<stop offset="1" style="stop-color:rgb(0%,82.352941%,89.803922%);stop-opacity:1;"/>
</linearGradient>
<linearGradient id="linear1" gradientUnits="userSpaceOnUse" x1="59.7175" y1="-0.221279" x2="60.2588" y2="139.005" >
<stop offset="0" style="stop-color:rgb(0%,100%,75.294118%);stop-opacity:1;"/>
<stop offset="1" style="stop-color:rgb(0%,82.352941%,89.803922%);stop-opacity:1;"/>
</linearGradient>
</defs>
<g id="surface1">
<path style=" stroke:none;fill-rule:nonzero;fill:url(#linear0);" d="M 19.640625 43.101562 L 19.640625 17.222656 L 16.84375 17.222656 C 16.851562 16.0625 16.835938 16.046875 16.84375 15.054688 L 29.910156 15.054688 C 32.503906 15.054688 34.605469 15.835938 36.222656 17.402344 C 37.855469 18.953125 38.671875 20.777344 38.671875 22.878906 C 38.671875 25.53125 37.3125 27.671875 34.589844 29.308594 C 36.75 30.117188 38.335938 31.195312 39.339844 32.539062 C 40.347656 33.878906 40.851562 35.359375 40.851562 36.980469 C 40.851562 38.425781 40.519531 39.75 39.859375 40.957031 C 39.199219 42.144531 38.1875 43.160156 36.816406 44.003906 C 35.464844 44.847656 33.988281 45.269531 32.386719 45.269531 L 16.84375 45.269531 C 16.84375 44.164062 16.824219 44.191406 16.84375 43.101562 Z M 21.71875 28.484375 L 29.070312 28.484375 C 30.636719 28.484375 32.074219 28.183594 33.375 27.578125 C 34.382812 27.097656 35.167969 26.398438 35.726562 25.488281 C 36.289062 24.574219 36.570312 23.644531 36.570312 22.699219 C 36.570312 21.339844 35.957031 20.089844 34.738281 18.953125 C 33.515625 17.800781 31.925781 17.222656 29.960938 17.222656 L 21.71875 17.222656 Z M 21.71875 43.101562 L 32.238281 43.101562 C 33.574219 43.101562 34.738281 42.789062 35.726562 42.171875 C 36.71875 41.550781 37.46875 40.785156 37.980469 39.871094 C 38.492188 38.960938 38.746094 38.011719 38.746094 37.03125 C 38.746094 35.929688 38.375 34.863281 37.632812 33.828125 C 36.90625 32.796875 35.890625 32.011719 34.589844 31.480469 C 33.285156 30.945312 31.488281 30.679688 29.195312 30.679688 L 21.71875 30.679688 Z M 21.71875 43.101562 "/>
<path style="fill:none;stroke-width:1.72061;stroke-linecap:square;stroke-linejoin:round;stroke:url(#linear1);stroke-miterlimit:4;" d="M 59.5 125.568648 L 117.998182 125.568648 L 117.509294 1.00032 L 1.001818 1.00032 L 1.001818 61.084593 " transform="matrix(0.487395,0,0,0.480315,0,0)"/>
</g>
</svg>
